<svg width="330" height="318" viewBox="0 0 330 318" fill="none" xmlns="http://www.w3.org/2000/svg">
<path d="M329.95 43.76C329.95 29.32 323.28 18.41 309.95 11.04C297.61 4.00996 279.57 0.339958 255.82 0.00995824C253.89 -0.0100418 252.31 1.52996 252.31 3.45996V99.4L329.95 193.99V43.76Z" fill="#E70BBB"/>
<path d="M252.31 99.39V198.67C252.31 199.45 252.58 200.21 253.07 200.82L273.96 226.87C275.27 228.5 274.84 230.9 273.05 231.98C273.01 232.01 272.96 232.02 272.91 232.05L324.63 293.37C328.16 288.41 329.95 283.04 329.95 277.25V193.98L252.31 99.39Z" fill="#E74ABB"/>
<path d="M0 46.87V121.64L77.64 216.23V106.44C77.64 105.66 77.37 104.9 76.88 104.29L55.86 78.08C54.94 76.94 54.89 75.41 55.56 74.22L10.16 20.4C3.4 27.6 0 36.42 0 46.87Z" fill="#F6E863"/>
<path d="M0 314.03C0 315.96 1.58 317.51 3.51 317.48C27.26 317.16 45.3 313.48 57.64 306.45C70.97 299.08 77.64 288.18 77.64 273.73V216.24L0 121.64V314.03Z" fill="#FBBD38"/>
<path d="M268.65 231.27L72.8 1.22C72.14 0.44 71.16 0 70.14 0C48.94 0.21 32.03 4.48 19.41 12.82C15.82 15.11 12.75 17.64 10.16 20.4L55.56 74.23C55.81 73.79 56.16 73.38 56.62 73.08L56.85 72.92C58.3 71.93 60.26 72.2 61.4 73.54L267.74 316.27C268.4 317.05 269.38 317.51 270.41 317.49C285.81 317.23 299.39 313.25 311.13 305.56C317.02 301.82 321.51 297.76 324.63 293.38L272.91 232.06C271.48 232.83 269.7 232.52 268.65 231.27Z" fill="#61B1EF"/>
<path d="M46.7878 27.03C46.1178 26.24 45.8778 25.38 46.0578 24.45C46.2178 23.54 46.8378 22.62 47.9078 21.71C48.2578 22.35 48.6278 22.9 49.0078 23.35C49.3878 23.8 49.8078 24.14 50.2178 24.32C50.6078 24.51 51.0978 24.58 51.6978 24.52C52.3178 24.48 53.1378 24.31 54.1778 24.01L55.4978 23.62L64.0978 7C64.3078 7.05 64.5878 7.23 64.9478 7.54C65.3278 7.87 65.6178 8.15 65.8178 8.4C66.3078 8.98 66.6478 9.62 66.8178 10.32C67.0078 11.04 66.9478 11.67 66.6378 12.22L61.6178 21.23L59.8278 21.92L59.9578 22.25L71.7078 18.2C72.3378 17.99 72.9678 18.02 73.5878 18.3C74.2478 18.58 74.8278 19.02 75.3478 19.62C75.5578 19.86 75.7778 20.19 76.0278 20.59C76.2878 21.01 76.4278 21.33 76.4478 21.54L55.8178 28.22C53.6578 28.92 51.8578 29.18 50.4278 29.01C49.0078 28.86 47.7878 28.19 46.7878 27.01V27.03ZM67.9078 40.48C66.8578 39.24 66.1178 37.92 65.7078 36.52C65.2978 35.12 65.2378 33.8 65.5378 32.54C65.8478 31.27 66.5178 30.21 67.5278 29.34L71.2778 26.16C72.3078 25.28 73.4878 24.77 74.8178 24.61C76.1578 24.44 77.5078 24.66 78.8578 25.26C80.2078 25.86 81.4278 26.8 82.5078 28.08C83.5878 29.36 84.3178 30.71 84.6978 32.14C85.0678 33.57 85.0678 34.94 84.6778 36.23C84.3078 37.51 83.6078 38.59 82.5778 39.47L78.8278 42.65C77.8078 43.51 76.6478 43.99 75.3478 44.1C74.0678 44.19 72.7678 43.91 71.4478 43.28C70.1378 42.65 68.9478 41.71 67.8978 40.47L67.9078 40.48ZM71.2378 37.66C71.9878 38.54 72.7678 39.06 73.5778 39.22C74.3878 39.37 75.1378 39.16 75.8378 38.56L79.1078 35.78C79.8378 35.16 80.2178 34.4 80.2378 33.51C80.2778 32.64 79.9278 31.77 79.1878 30.9C78.4478 30.03 77.6478 29.54 76.7678 29.42C75.8978 29.31 75.0978 29.57 74.3678 30.19L71.0978 32.97C70.3978 33.56 70.0678 34.27 70.0878 35.09C70.1078 35.91 70.4978 36.77 71.2478 37.65L71.2378 37.66ZM88.8878 59.25C87.9478 60.05 86.9578 60.35 85.9278 60.16C84.8978 59.97 83.8578 59.26 82.8178 58.04L84.4778 56.63C85.0178 56.66 85.5378 56.63 86.0378 56.52L85.9878 56.23C83.1578 56.59 80.8878 55.77 79.1778 53.76C78.3778 52.82 77.8678 51.78 77.6478 50.64C77.4478 49.49 77.5478 48.35 77.9578 47.23C78.3978 46.11 79.1278 45.12 80.1478 44.26L87.2578 38.23C88.0678 37.54 88.9078 37.37 89.7678 37.7C90.6678 38.04 91.6778 38.86 92.7978 40.18L83.7178 47.89C83.0378 48.46 82.6778 49.13 82.6378 49.88C82.5978 50.63 82.9078 51.4 83.5778 52.19C84.3478 53.09 85.2278 53.56 86.2178 53.59C87.2278 53.6 88.1878 53.23 89.0978 52.46L95.0478 47.41C95.8578 46.72 96.6978 46.55 97.5578 46.88C98.4578 47.22 99.4678 48.04 100.588 49.36L88.9078 59.27L88.8878 59.25ZM106.368 62.93C105.408 61.8 104.348 61.14 103.168 60.94C101.998 60.74 100.968 61.01 100.078 61.76L94.1278 66.81C93.3178 67.5 92.4678 67.67 91.5678 67.34C90.6978 67.01 89.7078 66.18 88.5978 64.87L100.278 54.96C101.218 54.16 102.208 53.86 103.238 54.05C104.268 54.24 105.308 54.95 106.348 56.17L104.688 57.58C104.148 57.55 103.628 57.58 103.128 57.69L103.178 57.98C106.008 57.62 108.168 58.32 109.678 60.09C110.398 60.94 110.718 61.77 110.628 62.58C110.548 63.4 110.158 64.1 109.458 64.69C108.928 65.14 108.348 65.39 107.718 65.44C107.568 64.66 107.128 63.83 106.378 62.94L106.368 62.93Z" fill="white"/>
<path d="M148.148 162.311C147.368 161.391 146.788 160.421 146.418 159.401C146.058 158.371 145.928 157.411 146.038 156.531C146.168 155.651 146.518 154.961 147.098 154.471L150.338 151.711C150.918 151.221 151.648 150.981 152.528 151.001C153.428 151.031 154.348 151.301 155.298 151.831C156.258 152.351 157.128 153.071 157.908 153.991C158.688 154.911 159.258 155.881 159.618 156.911C159.988 157.931 160.108 158.881 159.978 159.761C159.868 160.641 159.528 161.331 158.948 161.831L155.708 164.591C155.128 165.081 154.388 165.321 153.488 165.291C152.608 165.271 151.688 164.991 150.728 164.471C149.778 163.941 148.908 163.221 148.128 162.301L148.148 162.311ZM149.888 160.831C150.538 161.591 151.208 162.091 151.918 162.331C152.618 162.571 153.198 162.491 153.668 162.091L156.828 159.401C157.288 159.011 157.458 158.441 157.338 157.711C157.218 156.981 156.828 156.231 156.188 155.471C155.548 154.711 154.868 154.211 154.158 153.971C153.448 153.731 152.878 153.811 152.408 154.211L149.248 156.901C148.788 157.291 148.618 157.861 148.738 158.591C148.858 159.321 149.248 160.071 149.888 160.831ZM163.078 168.821C162.508 168.151 161.898 167.721 161.268 167.551C160.638 167.371 160.098 167.471 159.678 167.831L156.808 170.271C156.418 170.601 155.978 170.651 155.478 170.421C154.998 170.191 154.428 169.681 153.758 168.891L159.388 164.091C159.838 163.701 160.348 163.591 160.908 163.751C161.468 163.911 162.058 164.361 162.678 165.091L161.878 165.771C161.588 165.731 161.318 165.721 161.058 165.741L161.108 165.901C162.588 165.861 163.778 166.361 164.678 167.421C165.108 167.921 165.328 168.401 165.328 168.841C165.328 169.281 165.168 169.651 164.828 169.931C164.578 170.151 164.278 170.251 163.948 170.251C163.828 169.811 163.538 169.331 163.088 168.801L163.078 168.821ZM159.708 181.401C159.128 180.721 158.688 180.041 158.388 179.391C158.088 178.741 157.938 178.161 157.938 177.651C157.958 177.151 158.118 176.771 158.428 176.511C158.758 176.231 159.108 176.181 159.478 176.341C159.858 176.521 160.278 176.871 160.728 177.391C160.088 178.131 160.238 179.051 161.178 180.151C161.708 180.781 162.208 181.111 162.678 181.141C163.138 181.191 163.598 181.031 164.038 180.651L164.388 180.351C164.658 180.451 164.858 180.491 164.978 180.491V180.361C164.518 180.261 163.998 180.021 163.458 179.631C162.918 179.261 162.488 178.871 162.148 178.481C161.618 177.861 161.248 177.211 161.028 176.531C160.818 175.861 160.768 175.221 160.898 174.611C161.038 174.011 161.348 173.501 161.818 173.101L163.788 171.421C164.238 171.031 164.778 170.831 165.398 170.801C166.038 170.781 166.678 170.921 167.318 171.231C167.968 171.531 168.518 171.951 168.978 172.491C169.508 173.111 169.848 173.711 170.008 174.311C170.188 174.911 170.238 175.551 170.158 176.221L170.288 176.261C170.318 176.131 170.348 175.931 170.368 175.641C170.868 175.221 171.718 175.711 172.918 177.121L166.318 182.741C165.708 183.261 165.018 183.551 164.238 183.611C163.448 183.681 162.668 183.521 161.878 183.121C161.078 182.731 160.358 182.161 159.708 181.401ZM164.278 177.751C164.678 178.221 165.098 178.531 165.538 178.681C165.988 178.821 166.338 178.781 166.608 178.561L168.428 177.011C168.698 176.781 168.798 176.431 168.718 175.981C168.638 175.521 168.398 175.061 167.998 174.591C167.558 174.071 167.128 173.751 166.708 173.631C166.308 173.511 165.938 173.591 165.618 173.861L163.918 175.311C163.598 175.581 163.468 175.931 163.518 176.351C163.578 176.771 163.828 177.241 164.278 177.771V177.751ZM169.748 187.681C169.278 187.131 168.928 186.541 168.688 185.911C168.468 185.281 168.398 184.681 168.488 184.101C168.588 183.511 168.878 183.021 169.358 182.611C169.838 182.201 170.388 182.011 170.998 182.031C171.618 182.041 172.238 182.231 172.858 182.591C173.488 182.961 174.068 183.461 174.588 184.081C175.028 184.601 175.348 185.101 175.558 185.611C175.778 186.121 175.908 186.661 175.958 187.211H176.108C176.078 186.841 176.048 186.551 175.998 186.361L176.178 186.211C176.518 185.921 176.658 185.531 176.598 185.041C176.548 184.561 176.288 184.041 175.808 183.481C175.388 182.991 174.938 182.611 174.468 182.351C173.998 182.091 173.518 181.961 173.038 181.971C172.868 181.651 172.768 181.341 172.748 181.021C172.748 180.711 172.838 180.481 173.018 180.321C173.298 180.081 173.678 180.021 174.168 180.131C174.658 180.231 175.188 180.491 175.758 180.901C176.348 181.311 176.908 181.831 177.438 182.461C178.478 183.681 179.058 184.821 179.168 185.871C179.278 186.921 178.938 187.771 178.158 188.441L174.848 191.261C174.418 191.621 173.968 191.711 173.478 191.531C172.998 191.361 172.448 190.901 171.818 190.161L172.348 189.711C172.618 189.771 172.848 189.811 173.028 189.821V189.681C172.398 189.571 171.838 189.391 171.328 189.121C170.828 188.851 170.298 188.371 169.718 187.701L169.748 187.681ZM171.628 187.181C172.088 187.721 172.528 188.071 172.948 188.231C173.368 188.391 173.738 188.341 174.038 188.081C174.338 187.821 174.438 187.471 174.348 187.011C174.258 186.561 173.998 186.071 173.548 185.541C173.148 185.071 172.738 184.771 172.328 184.631C171.928 184.511 171.578 184.571 171.278 184.831C170.978 185.091 170.848 185.431 170.918 185.841C170.998 186.261 171.228 186.711 171.638 187.181H171.628ZM180.798 189.241C181.248 188.851 181.758 188.741 182.318 188.901C182.878 189.061 183.468 189.511 184.088 190.241L183.288 190.921C182.998 190.881 182.728 190.871 182.468 190.891L182.518 191.051C183.218 191.031 183.908 191.181 184.578 191.511C185.258 191.841 185.878 192.321 186.418 192.961C186.898 193.521 187.208 194.101 187.368 194.711C187.528 195.331 187.528 195.911 187.368 196.481C187.218 197.041 186.908 197.511 186.458 197.891L182.908 200.911C182.518 201.241 182.078 201.291 181.578 201.061C181.088 200.821 180.518 200.311 179.858 199.531L184.218 195.821C184.528 195.561 184.678 195.211 184.678 194.791C184.678 194.381 184.508 193.951 184.128 193.511C183.668 192.971 183.158 192.651 182.588 192.561C182.018 192.461 181.518 192.601 181.098 192.961L178.228 195.401C177.838 195.731 177.398 195.781 176.898 195.551C176.418 195.321 175.848 194.811 175.178 194.021L180.808 189.221L180.798 189.241ZM192.168 198.681C191.808 198.251 191.598 197.811 191.548 197.351C191.518 196.891 191.668 196.521 191.988 196.251C192.308 195.981 192.698 195.891 193.138 196.001C193.598 196.111 194.008 196.381 194.368 196.811C194.728 197.241 194.928 197.681 194.958 198.141C195.008 198.601 194.868 198.971 194.538 199.251C194.208 199.531 193.818 199.611 193.358 199.501C192.918 199.391 192.518 199.121 192.158 198.691L192.168 198.681ZM189.578 198.891C189.968 198.561 190.408 198.511 190.898 198.761C191.398 198.991 191.978 199.501 192.628 200.271L186.668 205.341C186.278 205.671 185.838 205.721 185.338 205.491C184.848 205.251 184.278 204.741 183.618 203.961L189.578 198.891ZM188.008 208.881C187.788 208.621 187.688 208.351 187.698 208.071C187.728 207.791 187.838 207.571 188.038 207.401C188.198 207.261 188.398 207.201 188.618 207.231L197.528 208.301L197.508 208.141L196.618 208.001L194.068 205.001C193.718 204.591 193.568 204.161 193.628 203.721C193.698 203.291 193.938 202.901 194.348 202.551L199.948 209.131C200.168 209.391 200.268 209.661 200.258 209.941C200.258 210.211 200.168 210.431 199.978 210.581C199.788 210.741 199.568 210.801 199.318 210.771L190.408 209.701L190.428 209.891L191.338 210.021L194.178 213.351C194.528 213.771 194.668 214.191 194.598 214.621C194.528 215.051 194.288 215.441 193.878 215.791L188.008 208.891V208.881ZM197.758 220.581C197.168 219.881 196.728 219.141 196.448 218.351C196.178 217.571 196.088 216.841 196.188 216.171C196.278 215.491 196.568 214.951 197.048 214.541L198.788 213.061C199.298 212.631 199.908 212.411 200.618 212.401C201.348 212.401 202.088 212.591 202.828 212.981C203.568 213.371 204.228 213.911 204.818 214.601C205.408 215.291 205.798 215.991 206.058 216.741C206.328 217.501 206.398 218.211 206.268 218.891C206.148 219.561 205.828 220.101 205.318 220.541L204.588 221.171C204.368 221.361 204.098 221.411 203.768 221.341C203.448 221.261 203.158 221.061 202.888 220.751L199.278 216.511L199.088 216.671C198.728 216.981 198.538 217.371 198.538 217.841C198.548 218.311 198.788 218.821 199.248 219.361C199.708 219.901 200.118 220.201 200.508 220.291C200.908 220.371 201.248 220.291 201.528 220.061C201.738 220.271 201.888 220.431 201.988 220.541C202.378 221.001 202.608 221.421 202.658 221.801C202.718 222.181 202.588 222.491 202.288 222.751C202.048 222.961 201.668 223.021 201.168 222.921C200.668 222.821 200.108 222.571 199.498 222.171C198.898 221.771 198.318 221.251 197.758 220.601V220.581ZM203.348 218.601L203.538 218.441C203.898 218.131 204.058 217.741 204.008 217.261C203.978 216.781 203.758 216.301 203.348 215.821C202.938 215.341 202.498 215.041 202.018 214.921C201.558 214.811 201.148 214.901 200.788 215.211L200.598 215.371L203.348 218.601ZM204.458 233.971C204.058 233.501 203.878 233.011 203.918 232.511C203.948 232.021 204.228 231.551 204.748 231.111C204.968 231.481 205.198 231.801 205.428 232.071C205.658 232.341 205.898 232.551 206.128 232.671C206.348 232.801 206.608 232.861 206.928 232.861C207.248 232.871 207.678 232.831 208.218 232.721L208.898 232.581L212.518 223.931C212.628 223.971 212.788 224.091 212.998 224.271C213.218 224.471 213.388 224.651 213.508 224.791C213.808 225.141 214.018 225.511 214.148 225.901C214.288 226.301 214.288 226.651 214.158 226.931L212.008 231.601L211.098 231.881L211.188 232.071L217.198 230.501C217.518 230.421 217.858 230.471 218.208 230.661C218.578 230.851 218.908 231.131 219.218 231.491C219.338 231.641 219.478 231.831 219.638 232.061C219.798 232.311 219.898 232.491 219.918 232.611L209.348 235.141C208.238 235.401 207.298 235.451 206.528 235.281C205.768 235.121 205.078 234.681 204.478 233.981L204.458 233.971ZM216.448 242.541C215.818 241.801 215.358 241.031 215.058 240.241C214.758 239.451 214.658 238.721 214.738 238.041C214.828 237.361 215.128 236.811 215.618 236.391L217.428 234.851C217.928 234.431 218.528 234.211 219.218 234.201C219.918 234.181 220.648 234.371 221.398 234.781C222.148 235.191 222.848 235.771 223.498 236.531C224.148 237.291 224.608 238.081 224.888 238.881C225.168 239.691 225.238 240.441 225.108 241.131C224.988 241.811 224.678 242.371 224.178 242.791L222.368 244.331C221.878 244.751 221.288 244.951 220.608 244.931C219.928 244.911 219.228 244.681 218.488 244.261C217.758 243.841 217.068 243.261 216.438 242.521L216.448 242.541ZM218.058 241.171C218.508 241.701 218.948 242.031 219.388 242.161C219.828 242.291 220.218 242.211 220.548 241.931L222.128 240.591C222.478 240.291 222.638 239.891 222.598 239.411C222.568 238.931 222.328 238.441 221.888 237.921C221.448 237.401 220.988 237.091 220.518 236.971C220.048 236.861 219.638 236.971 219.288 237.261L217.708 238.601C217.368 238.891 217.238 239.261 217.288 239.711C217.348 240.161 217.598 240.651 218.048 241.181L218.058 241.171ZM228.668 254.021C228.218 254.411 227.708 254.521 227.148 254.361C226.588 254.201 225.998 253.751 225.378 253.021L226.178 252.341C226.468 252.381 226.738 252.391 226.998 252.371L226.948 252.211C225.468 252.251 224.218 251.671 223.188 250.471C222.708 249.911 222.378 249.311 222.198 248.671C222.028 248.021 222.018 247.401 222.168 246.811C222.338 246.221 222.668 245.721 223.158 245.301L226.588 242.381C226.978 242.051 227.408 242.001 227.888 242.231C228.388 242.461 228.968 242.981 229.638 243.761L225.258 247.491C224.928 247.771 224.778 248.111 224.798 248.521C224.818 248.931 225.028 249.371 225.428 249.841C225.888 250.381 226.378 250.681 226.908 250.751C227.448 250.811 227.938 250.661 228.368 250.291L231.238 247.851C231.628 247.521 232.058 247.471 232.538 247.701C233.038 247.931 233.618 248.451 234.288 249.231L228.658 254.031L228.668 254.021ZM238.168 257.011C237.598 256.341 236.988 255.911 236.358 255.741C235.728 255.561 235.188 255.661 234.768 256.021L231.898 258.461C231.508 258.791 231.068 258.841 230.568 258.611C230.088 258.381 229.518 257.871 228.848 257.081L234.478 252.281C234.928 251.891 235.438 251.781 235.998 251.941C236.558 252.101 237.148 252.551 237.768 253.281L236.968 253.961C236.678 253.921 236.408 253.911 236.148 253.931L236.198 254.091C237.678 254.051 238.868 254.551 239.768 255.611C240.198 256.111 240.418 256.591 240.418 257.031C240.418 257.471 240.258 257.841 239.918 258.121C239.668 258.341 239.368 258.441 239.038 258.441C238.918 258.001 238.628 257.521 238.178 256.991L238.168 257.011ZM242.458 273.081C241.648 272.131 241.268 271.241 241.338 270.411C241.408 269.581 241.778 268.871 242.478 268.281L245.648 265.581L244.128 263.801C244.588 263.411 245.028 263.221 245.438 263.241C245.848 263.261 246.198 263.441 246.498 263.791L247.058 264.451L248.138 263.531C248.528 263.201 248.958 263.151 249.438 263.381C249.928 263.601 250.488 264.091 251.128 264.841L248.968 266.681L250.878 268.921C250.388 269.341 249.938 269.531 249.528 269.491C249.128 269.441 248.708 269.161 248.268 268.651L247.628 267.891L244.528 270.531C244.228 270.781 244.068 271.041 244.058 271.301C244.058 271.551 244.208 271.861 244.508 272.221C244.838 272.611 245.278 272.941 245.808 273.201C245.818 273.401 245.788 273.591 245.708 273.781C245.638 273.971 245.538 274.131 245.398 274.251C245.218 274.401 244.968 274.481 244.668 274.471C244.368 274.461 244.008 274.341 243.618 274.121C243.238 273.901 242.858 273.561 242.468 273.101L242.458 273.081ZM247.428 278.921C246.958 278.371 246.608 277.781 246.368 277.151C246.148 276.521 246.078 275.921 246.168 275.341C246.268 274.751 246.558 274.261 247.038 273.851C247.518 273.441 248.068 273.251 248.678 273.271C249.298 273.281 249.918 273.471 250.538 273.831C251.168 274.201 251.748 274.701 252.268 275.321C252.708 275.841 253.028 276.341 253.238 276.851C253.458 277.361 253.588 277.901 253.638 278.451H253.788C253.758 278.081 253.728 277.791 253.678 277.601L253.858 277.451C254.198 277.161 254.338 276.771 254.278 276.281C254.228 275.801 253.968 275.281 253.488 274.721C253.068 274.231 252.618 273.851 252.148 273.591C251.678 273.331 251.198 273.201 250.718 273.211C250.548 272.891 250.448 272.581 250.428 272.261C250.428 271.951 250.518 271.721 250.698 271.561C250.978 271.321 251.358 271.261 251.848 271.371C252.338 271.471 252.868 271.731 253.438 272.141C254.018 272.551 254.578 273.071 255.118 273.701C256.158 274.921 256.738 276.061 256.848 277.111C256.958 278.161 256.618 279.011 255.838 279.681L252.528 282.501C252.098 282.861 251.648 282.951 251.158 282.771C250.678 282.601 250.128 282.141 249.498 281.401L250.028 280.951C250.298 281.011 250.528 281.051 250.708 281.061V280.921C250.078 280.811 249.518 280.631 249.008 280.361C248.508 280.091 247.978 279.611 247.398 278.941L247.428 278.921ZM249.308 278.421C249.768 278.961 250.208 279.311 250.628 279.471C251.048 279.631 251.418 279.581 251.718 279.321C252.018 279.061 252.118 278.711 252.028 278.251C251.938 277.801 251.678 277.311 251.228 276.781C250.828 276.311 250.418 276.011 250.008 275.871C249.608 275.751 249.258 275.811 248.958 276.071C248.658 276.331 248.528 276.671 248.598 277.081C248.678 277.501 248.908 277.951 249.318 278.421H249.308ZM255.658 288.581C254.688 287.441 254.068 286.401 253.818 285.481C253.568 284.551 253.708 283.861 254.238 283.411C254.478 283.211 254.778 283.161 255.148 283.271C255.528 283.391 255.958 283.731 256.438 284.291C256.148 284.691 256.058 285.161 256.158 285.691C256.268 286.221 256.518 286.721 256.938 287.211C257.418 287.771 257.838 288.161 258.208 288.371C258.588 288.591 258.878 288.611 259.088 288.441C259.268 288.291 259.318 288.031 259.248 287.661C259.178 287.301 258.898 286.681 258.408 285.821C257.838 284.821 257.428 284.001 257.178 283.381C256.948 282.761 256.868 282.231 256.928 281.791C256.988 281.351 257.228 280.951 257.648 280.601C258.238 280.101 258.968 280.001 259.838 280.301C260.728 280.611 261.638 281.311 262.578 282.411C263.518 283.511 264.088 284.491 264.368 285.421C264.638 286.351 264.528 287.021 264.028 287.451C263.778 287.671 263.488 287.711 263.168 287.571C262.858 287.431 262.468 287.081 261.988 286.541C262.208 286.101 262.268 285.661 262.178 285.221C262.098 284.781 261.828 284.291 261.358 283.741C261.028 283.351 260.678 283.051 260.308 282.841C259.938 282.631 259.678 282.591 259.528 282.721C259.358 282.871 259.328 283.111 259.438 283.441C259.558 283.781 259.818 284.291 260.228 284.971C261.098 286.451 261.588 287.631 261.698 288.511C261.818 289.401 261.558 290.111 260.918 290.651C260.528 290.981 260.048 291.131 259.488 291.091C258.918 291.051 258.308 290.821 257.648 290.391C256.998 289.961 256.338 289.351 255.688 288.581H255.658ZM267.248 301.061C266.668 301.131 266.138 300.891 265.668 300.341C265.468 300.101 265.328 299.861 265.258 299.611C265.198 299.351 265.188 299.071 265.238 298.761L265.868 294.651L264.078 294.261L263.088 295.111C262.698 295.441 262.258 295.491 261.758 295.261C261.268 295.021 260.698 294.511 260.048 293.751L268.408 286.641C269.348 285.841 270.478 286.211 271.798 287.761L266.208 292.521L272.308 293.861C272.458 294.841 272.408 295.431 272.168 295.631C272.018 295.751 271.848 295.821 271.648 295.811C271.458 295.811 271.198 295.781 270.848 295.701L268.038 295.101L267.248 301.061ZM270.288 305.761C269.318 304.621 268.698 303.581 268.448 302.661C268.198 301.731 268.338 301.041 268.868 300.591C269.108 300.391 269.408 300.341 269.778 300.451C270.158 300.571 270.588 300.911 271.068 301.471C270.778 301.871 270.688 302.341 270.788 302.871C270.898 303.401 271.148 303.911 271.568 304.391C272.048 304.951 272.468 305.341 272.838 305.551C273.218 305.771 273.508 305.791 273.718 305.621C273.898 305.471 273.958 305.211 273.878 304.841C273.808 304.481 273.528 303.861 273.038 303.001C272.468 302.001 272.058 301.181 271.808 300.561C271.578 299.941 271.498 299.411 271.558 298.971C271.618 298.531 271.858 298.131 272.278 297.781C272.868 297.281 273.598 297.181 274.468 297.481C275.358 297.791 276.268 298.491 277.208 299.591C278.148 300.691 278.718 301.671 278.998 302.601C279.268 303.531 279.158 304.201 278.658 304.631C278.408 304.851 278.118 304.891 277.798 304.751C277.488 304.611 277.098 304.261 276.618 303.721C276.838 303.281 276.898 302.841 276.808 302.401C276.728 301.961 276.458 301.471 275.988 300.921C275.658 300.531 275.308 300.231 274.938 300.021C274.568 299.811 274.308 299.771 274.158 299.901C273.988 300.051 273.958 300.291 274.068 300.621C274.188 300.961 274.448 301.471 274.858 302.151C275.728 303.631 276.218 304.811 276.328 305.691C276.448 306.581 276.188 307.291 275.548 307.831C275.158 308.161 274.678 308.311 274.118 308.271C273.548 308.231 272.938 308.001 272.278 307.571C271.628 307.141 270.968 306.531 270.318 305.761H270.288Z" fill="white"/>
</svg>
