<svg width="330" height="321" viewBox="0 0 330 321" fill="none" xmlns="http://www.w3.org/2000/svg">
<path d="M329.95 47.2499C329.95 32.8099 323.28 21.8999 309.95 14.5299C297.61 7.49995 279.57 3.82995 255.82 3.49995C253.89 3.47995 252.31 5.01995 252.31 6.94995V102.89L329.95 197.48V47.2499Z" fill="#E70BBB"/>
<path d="M252.31 102.88V202.16C252.31 202.94 252.58 203.7 253.07 204.31L273.96 230.36C275.27 231.99 274.84 234.39 273.05 235.47C273.01 235.5 272.96 235.51 272.91 235.54L324.63 296.86C328.16 291.9 329.95 286.53 329.95 280.74V197.47L252.31 102.88Z" fill="#E74ABB"/>
<path d="M0 50.36V125.13L77.64 219.72V109.93C77.64 109.15 77.37 108.39 76.88 107.78L55.86 81.57C54.94 80.43 54.89 78.9 55.56 77.71L10.16 23.89C3.4 31.09 0 39.91 0 50.36Z" fill="#F6E863"/>
<path d="M0 317.52C0 319.45 1.58 321 3.51 320.97C27.26 320.65 45.3 316.97 57.64 309.94C70.97 302.57 77.64 291.67 77.64 277.22V219.73L0 125.13V317.52Z" fill="#FBBD38"/>
<path d="M268.65 234.76L72.8 4.70999C72.14 3.92999 71.16 3.48999 70.14 3.48999C48.94 3.69999 32.03 7.96999 19.41 16.31C15.82 18.6 12.75 21.13 10.16 23.89L55.56 77.72C55.81 77.28 56.16 76.87 56.62 76.57L56.85 76.41C58.3 75.42 60.26 75.69 61.4 77.03L267.74 319.76C268.4 320.54 269.38 321 270.41 320.98C285.81 320.72 299.39 316.74 311.13 309.05C317.02 305.31 321.51 301.25 324.63 296.87L272.91 235.55C271.48 236.32 269.7 236.01 268.65 234.76Z" fill="#61B1EF"/>
<path d="M88.5199 20.03C87.8499 19.24 87.6099 18.38 87.7899 17.45C87.9499 16.54 88.5699 15.62 89.6399 14.71C89.9899 15.35 90.3599 15.9 90.7399 16.35C91.1199 16.8 91.5399 17.14 91.9499 17.32C92.3399 17.51 92.8299 17.58 93.4299 17.52C94.0499 17.48 94.8699 17.31 95.9099 17.01L97.2299 16.62L105.83 0C106.04 0.05 106.32 0.23 106.68 0.54C107.06 0.87 107.35 1.15 107.55 1.4C108.04 1.98 108.38 2.62 108.55 3.32C108.74 4.04 108.68 4.67 108.37 5.22L103.35 14.23L101.56 14.92L101.69 15.25L113.44 11.2C114.07 10.99 114.7 11.02 115.32 11.3C115.98 11.58 116.56 12.02 117.08 12.62C117.29 12.86 117.51 13.19 117.76 13.59C118.02 14.01 118.16 14.33 118.18 14.54L97.5499 21.22C95.3899 21.92 93.5899 22.18 92.1599 22.01C90.7399 21.86 89.5199 21.19 88.5199 20.01V20.03ZM109.64 33.48C108.59 32.24 107.85 30.92 107.44 29.52C107.03 28.12 106.97 26.8 107.27 25.54C107.58 24.27 108.25 23.21 109.26 22.34L113.01 19.16C114.04 18.28 115.22 17.77 116.55 17.61C117.89 17.44 119.24 17.66 120.59 18.26C121.94 18.86 123.16 19.8 124.24 21.08C125.32 22.36 126.05 23.71 126.43 25.14C126.8 26.57 126.8 27.94 126.41 29.23C126.04 30.51 125.34 31.59 124.31 32.47L120.56 35.65C119.54 36.51 118.38 36.99 117.08 37.1C115.8 37.19 114.5 36.91 113.18 36.28C111.87 35.65 110.68 34.71 109.63 33.47L109.64 33.48ZM112.97 30.66C113.72 31.54 114.5 32.06 115.31 32.22C116.12 32.37 116.87 32.16 117.57 31.56L120.84 28.78C121.57 28.16 121.95 27.4 121.97 26.51C122.01 25.64 121.66 24.77 120.92 23.9C120.18 23.03 119.38 22.54 118.5 22.42C117.63 22.31 116.83 22.57 116.1 23.19L112.83 25.97C112.13 26.56 111.8 27.27 111.82 28.09C111.84 28.91 112.23 29.77 112.98 30.65L112.97 30.66ZM130.62 52.25C129.68 53.05 128.69 53.35 127.66 53.16C126.63 52.97 125.59 52.26 124.55 51.04L126.21 49.63C126.75 49.66 127.27 49.63 127.77 49.52L127.72 49.23C124.89 49.59 122.62 48.77 120.91 46.76C120.11 45.82 119.6 44.78 119.38 43.64C119.18 42.49 119.28 41.35 119.69 40.23C120.13 39.11 120.86 38.12 121.88 37.26L128.99 31.23C129.8 30.54 130.64 30.37 131.5 30.7C132.4 31.04 133.41 31.86 134.53 33.18L125.45 40.89C124.77 41.46 124.41 42.13 124.37 42.88C124.33 43.63 124.64 44.4 125.31 45.19C126.08 46.09 126.96 46.56 127.95 46.59C128.96 46.6 129.92 46.23 130.83 45.46L136.78 40.41C137.59 39.72 138.43 39.55 139.29 39.88C140.19 40.22 141.2 41.04 142.32 42.36L130.64 52.27L130.62 52.25ZM148.1 55.93C147.14 54.8 146.08 54.14 144.9 53.94C143.73 53.74 142.7 54.01 141.81 54.76L135.86 59.81C135.05 60.5 134.2 60.67 133.3 60.34C132.43 60.01 131.44 59.18 130.33 57.87L142.01 47.96C142.95 47.16 143.94 46.86 144.97 47.05C146 47.24 147.04 47.95 148.08 49.17L146.42 50.58C145.88 50.55 145.36 50.58 144.86 50.69L144.91 50.98C147.74 50.62 149.9 51.32 151.41 53.09C152.13 53.94 152.45 54.77 152.36 55.58C152.28 56.4 151.89 57.1 151.19 57.69C150.66 58.14 150.08 58.39 149.45 58.44C149.3 57.66 148.86 56.83 148.11 55.94L148.1 55.93Z" fill="#288EEF"/>
<path d="M94.3399 144.1C93.5599 143.18 92.9799 142.21 92.6099 141.19C92.2499 140.16 92.12 139.2 92.23 138.32C92.36 137.44 92.7099 136.75 93.2899 136.26L96.5299 133.5C97.1099 133.01 97.8399 132.77 98.7199 132.79C99.6199 132.82 100.54 133.09 101.49 133.62C102.45 134.14 103.32 134.86 104.1 135.78C104.88 136.7 105.45 137.67 105.81 138.7C106.18 139.72 106.3 140.67 106.17 141.55C106.06 142.43 105.72 143.12 105.14 143.62L101.9 146.38C101.32 146.87 100.58 147.11 99.6799 147.08C98.7999 147.06 97.8799 146.78 96.9199 146.26C95.9699 145.73 95.0999 145.01 94.3199 144.09L94.3399 144.1ZM96.0799 142.62C96.7299 143.38 97.3999 143.88 98.1099 144.12C98.8099 144.36 99.3899 144.28 99.8599 143.88L103.02 141.19C103.48 140.8 103.65 140.23 103.53 139.5C103.41 138.77 103.02 138.02 102.38 137.26C101.74 136.5 101.06 136 100.35 135.76C99.6399 135.52 99.0699 135.6 98.5999 136L95.4399 138.69C94.9799 139.08 94.8099 139.65 94.9299 140.38C95.0499 141.11 95.4399 141.86 96.0799 142.62ZM109.27 150.61C108.7 149.94 108.09 149.51 107.46 149.34C106.83 149.16 106.29 149.26 105.87 149.62L103 152.06C102.61 152.39 102.17 152.44 101.67 152.21C101.19 151.98 100.62 151.47 99.9499 150.68L105.58 145.88C106.03 145.49 106.54 145.38 107.1 145.54C107.66 145.7 108.25 146.15 108.87 146.88L108.07 147.56C107.78 147.52 107.51 147.51 107.25 147.53L107.3 147.69C108.78 147.65 109.97 148.15 110.87 149.21C111.3 149.71 111.52 150.19 111.52 150.63C111.52 151.07 111.36 151.44 111.02 151.72C110.77 151.94 110.47 152.04 110.14 152.04C110.02 151.6 109.73 151.12 109.28 150.59L109.27 150.61ZM105.9 163.19C105.32 162.51 104.88 161.83 104.58 161.18C104.28 160.53 104.13 159.95 104.13 159.44C104.15 158.94 104.31 158.56 104.62 158.3C104.95 158.02 105.3 157.97 105.67 158.13C106.05 158.31 106.47 158.66 106.92 159.18C106.28 159.92 106.43 160.84 107.37 161.94C107.9 162.57 108.4 162.9 108.87 162.93C109.33 162.98 109.79 162.82 110.23 162.44L110.58 162.14C110.85 162.24 111.05 162.28 111.17 162.28V162.15C110.71 162.05 110.19 161.81 109.65 161.42C109.11 161.05 108.68 160.66 108.34 160.27C107.81 159.65 107.44 159 107.22 158.32C107.01 157.65 106.96 157.01 107.09 156.4C107.23 155.8 107.54 155.29 108.01 154.89L109.98 153.21C110.43 152.82 110.97 152.62 111.59 152.59C112.23 152.57 112.87 152.71 113.51 153.02C114.16 153.32 114.71 153.74 115.17 154.28C115.7 154.9 116.04 155.5 116.2 156.1C116.38 156.7 116.43 157.34 116.35 158.01L116.48 158.05C116.51 157.92 116.54 157.72 116.56 157.43C117.06 157.01 117.91 157.5 119.11 158.91L112.51 164.53C111.9 165.05 111.21 165.34 110.43 165.4C109.64 165.47 108.86 165.31 108.07 164.91C107.27 164.52 106.55 163.95 105.9 163.19ZM110.47 159.54C110.87 160.01 111.29 160.32 111.73 160.47C112.18 160.61 112.53 160.57 112.8 160.35L114.62 158.8C114.89 158.57 114.99 158.22 114.91 157.77C114.83 157.31 114.59 156.85 114.19 156.38C113.75 155.86 113.32 155.54 112.9 155.42C112.5 155.3 112.13 155.38 111.81 155.65L110.11 157.1C109.79 157.37 109.66 157.72 109.71 158.14C109.77 158.56 110.02 159.03 110.47 159.56V159.54ZM115.94 169.47C115.47 168.92 115.12 168.33 114.88 167.7C114.66 167.07 114.59 166.47 114.68 165.89C114.78 165.3 115.07 164.81 115.55 164.4C116.03 163.99 116.58 163.8 117.19 163.82C117.81 163.83 118.43 164.02 119.05 164.38C119.68 164.75 120.26 165.25 120.78 165.87C121.22 166.39 121.54 166.89 121.75 167.4C121.97 167.91 122.1 168.45 122.15 169H122.3C122.27 168.63 122.24 168.34 122.19 168.15L122.37 168C122.71 167.71 122.85 167.32 122.79 166.83C122.74 166.35 122.48 165.83 122 165.27C121.58 164.78 121.13 164.4 120.66 164.14C120.19 163.88 119.71 163.75 119.23 163.76C119.06 163.44 118.96 163.13 118.94 162.81C118.94 162.5 119.03 162.27 119.21 162.11C119.49 161.87 119.87 161.81 120.36 161.92C120.85 162.02 121.38 162.28 121.95 162.69C122.54 163.1 123.1 163.62 123.63 164.25C124.67 165.47 125.25 166.61 125.36 167.66C125.47 168.71 125.13 169.56 124.35 170.23L121.04 173.05C120.61 173.41 120.16 173.5 119.67 173.32C119.19 173.15 118.64 172.69 118.01 171.95L118.54 171.5C118.81 171.56 119.04 171.6 119.22 171.61V171.47C118.59 171.36 118.03 171.18 117.52 170.91C117.02 170.64 116.49 170.16 115.91 169.49L115.94 169.47ZM117.82 168.97C118.28 169.51 118.72 169.86 119.14 170.02C119.56 170.18 119.93 170.13 120.23 169.87C120.53 169.61 120.63 169.26 120.54 168.8C120.45 168.35 120.19 167.86 119.74 167.33C119.34 166.86 118.93 166.56 118.52 166.42C118.12 166.3 117.77 166.36 117.47 166.62C117.17 166.88 117.04 167.22 117.11 167.63C117.19 168.05 117.42 168.5 117.83 168.97H117.82ZM126.99 171.03C127.44 170.64 127.95 170.53 128.51 170.69C129.07 170.85 129.66 171.3 130.28 172.03L129.48 172.71C129.19 172.67 128.92 172.66 128.66 172.68L128.71 172.84C129.41 172.82 130.1 172.97 130.77 173.3C131.45 173.63 132.07 174.11 132.61 174.75C133.09 175.31 133.4 175.89 133.56 176.5C133.72 177.12 133.72 177.7 133.56 178.27C133.41 178.83 133.1 179.3 132.65 179.68L129.1 182.7C128.71 183.03 128.27 183.08 127.77 182.85C127.28 182.61 126.71 182.1 126.05 181.32L130.41 177.61C130.72 177.35 130.87 177 130.87 176.58C130.87 176.17 130.7 175.74 130.32 175.3C129.86 174.76 129.35 174.44 128.78 174.35C128.21 174.25 127.71 174.39 127.29 174.75L124.42 177.19C124.03 177.52 123.59 177.57 123.09 177.34C122.61 177.11 122.04 176.6 121.37 175.81L127 171.01L126.99 171.03ZM138.36 180.47C138 180.04 137.79 179.6 137.74 179.14C137.71 178.68 137.86 178.31 138.18 178.04C138.5 177.77 138.89 177.68 139.33 177.79C139.79 177.9 140.2 178.17 140.56 178.6C140.92 179.03 141.12 179.47 141.15 179.93C141.2 180.39 141.06 180.76 140.73 181.04C140.4 181.32 140.01 181.4 139.55 181.29C139.11 181.18 138.71 180.91 138.35 180.48L138.36 180.47ZM135.77 180.68C136.16 180.35 136.6 180.3 137.09 180.55C137.59 180.78 138.17 181.29 138.82 182.06L132.86 187.13C132.47 187.46 132.03 187.51 131.53 187.28C131.04 187.04 130.47 186.53 129.81 185.75L135.77 180.68ZM134.2 190.67C133.98 190.41 133.88 190.14 133.89 189.86C133.92 189.58 134.03 189.36 134.23 189.19C134.39 189.05 134.59 188.99 134.81 189.02L143.72 190.09L143.7 189.93L142.81 189.79L140.26 186.79C139.91 186.38 139.76 185.95 139.82 185.51C139.89 185.08 140.13 184.69 140.54 184.34L146.14 190.92C146.36 191.18 146.46 191.45 146.45 191.73C146.45 192 146.36 192.22 146.17 192.37C145.98 192.53 145.76 192.59 145.51 192.56L136.6 191.49L136.62 191.68L137.53 191.81L140.37 195.14C140.72 195.56 140.86 195.98 140.79 196.41C140.72 196.84 140.48 197.23 140.07 197.58L134.2 190.68V190.67ZM143.95 202.37C143.36 201.67 142.92 200.93 142.64 200.14C142.37 199.36 142.28 198.63 142.38 197.96C142.47 197.28 142.76 196.74 143.24 196.33L144.98 194.85C145.49 194.42 146.1 194.2 146.81 194.19C147.54 194.19 148.28 194.38 149.02 194.77C149.76 195.16 150.42 195.7 151.01 196.39C151.6 197.08 151.99 197.78 152.25 198.53C152.52 199.29 152.59 200 152.46 200.68C152.34 201.35 152.02 201.89 151.51 202.33L150.78 202.96C150.56 203.15 150.29 203.2 149.96 203.13C149.64 203.05 149.35 202.85 149.08 202.54L145.47 198.3L145.28 198.46C144.92 198.77 144.73 199.16 144.73 199.63C144.74 200.1 144.98 200.61 145.44 201.15C145.9 201.69 146.31 201.99 146.7 202.08C147.1 202.16 147.44 202.08 147.72 201.85C147.93 202.06 148.08 202.22 148.18 202.33C148.57 202.79 148.8 203.21 148.85 203.59C148.91 203.97 148.78 204.28 148.48 204.54C148.24 204.75 147.86 204.81 147.36 204.71C146.86 204.61 146.3 204.36 145.69 203.96C145.09 203.56 144.51 203.04 143.95 202.39V202.37ZM149.54 200.39L149.73 200.23C150.09 199.92 150.25 199.53 150.2 199.05C150.17 198.57 149.95 198.09 149.54 197.61C149.13 197.13 148.69 196.83 148.21 196.71C147.75 196.6 147.34 196.69 146.98 197L146.79 197.16L149.54 200.39ZM150.65 215.76C150.25 215.29 150.07 214.8 150.11 214.3C150.14 213.81 150.42 213.34 150.94 212.9C151.16 213.27 151.39 213.59 151.62 213.86C151.85 214.13 152.09 214.34 152.32 214.46C152.54 214.59 152.8 214.65 153.12 214.65C153.44 214.66 153.87 214.62 154.41 214.51L155.09 214.37L158.71 205.72C158.82 205.76 158.98 205.88 159.19 206.06C159.41 206.26 159.58 206.44 159.7 206.58C160 206.93 160.21 207.3 160.34 207.69C160.48 208.09 160.48 208.44 160.35 208.72L158.2 213.39L157.29 213.67L157.38 213.86L163.39 212.29C163.71 212.21 164.05 212.26 164.4 212.45C164.77 212.64 165.1 212.92 165.41 213.28C165.53 213.43 165.67 213.62 165.83 213.85C165.99 214.1 166.09 214.28 166.11 214.4L155.54 216.93C154.43 217.19 153.49 217.24 152.72 217.07C151.96 216.91 151.27 216.47 150.67 215.77L150.65 215.76ZM162.64 224.33C162.01 223.59 161.55 222.82 161.25 222.03C160.95 221.24 160.85 220.51 160.93 219.83C161.02 219.15 161.32 218.6 161.81 218.18L163.62 216.64C164.12 216.22 164.72 216 165.41 215.99C166.11 215.97 166.84 216.16 167.59 216.57C168.34 216.98 169.04 217.56 169.69 218.32C170.34 219.08 170.8 219.87 171.08 220.67C171.36 221.48 171.43 222.23 171.3 222.92C171.18 223.6 170.87 224.16 170.37 224.58L168.56 226.12C168.07 226.54 167.48 226.74 166.8 226.72C166.12 226.7 165.42 226.47 164.68 226.05C163.95 225.63 163.26 225.05 162.63 224.31L162.64 224.33ZM164.25 222.96C164.7 223.49 165.14 223.82 165.58 223.95C166.02 224.08 166.41 224 166.74 223.72L168.32 222.38C168.67 222.08 168.83 221.68 168.79 221.2C168.76 220.72 168.52 220.23 168.08 219.71C167.64 219.19 167.18 218.88 166.71 218.76C166.24 218.65 165.83 218.76 165.48 219.05L163.9 220.39C163.56 220.68 163.43 221.05 163.48 221.5C163.54 221.95 163.79 222.44 164.24 222.97L164.25 222.96ZM174.86 235.81C174.41 236.2 173.9 236.31 173.34 236.15C172.78 235.99 172.19 235.54 171.57 234.81L172.37 234.13C172.66 234.17 172.93 234.18 173.19 234.16L173.14 234C171.66 234.04 170.41 233.46 169.38 232.26C168.9 231.7 168.57 231.1 168.39 230.46C168.22 229.81 168.21 229.19 168.36 228.6C168.53 228.01 168.86 227.51 169.35 227.09L172.78 224.17C173.17 223.84 173.6 223.79 174.08 224.02C174.58 224.25 175.16 224.77 175.83 225.55L171.45 229.28C171.12 229.56 170.97 229.9 170.99 230.31C171.01 230.72 171.22 231.16 171.62 231.63C172.08 232.17 172.57 232.47 173.1 232.54C173.64 232.6 174.13 232.45 174.56 232.08L177.43 229.64C177.82 229.31 178.25 229.26 178.73 229.49C179.23 229.72 179.81 230.24 180.48 231.02L174.85 235.82L174.86 235.81ZM184.36 238.8C183.79 238.13 183.18 237.7 182.55 237.53C181.92 237.35 181.38 237.45 180.96 237.81L178.09 240.25C177.7 240.58 177.26 240.63 176.76 240.4C176.28 240.17 175.71 239.66 175.04 238.87L180.67 234.07C181.12 233.68 181.63 233.57 182.19 233.73C182.75 233.89 183.34 234.34 183.96 235.07L183.16 235.75C182.87 235.71 182.6 235.7 182.34 235.72L182.39 235.88C183.87 235.84 185.06 236.34 185.96 237.4C186.39 237.9 186.61 238.38 186.61 238.82C186.61 239.26 186.45 239.63 186.11 239.91C185.86 240.13 185.56 240.23 185.23 240.23C185.11 239.79 184.82 239.31 184.37 238.78L184.36 238.8ZM188.65 254.87C187.84 253.92 187.46 253.03 187.53 252.2C187.6 251.37 187.97 250.66 188.67 250.07L191.84 247.37L190.32 245.59C190.78 245.2 191.22 245.01 191.63 245.03C192.04 245.05 192.39 245.23 192.69 245.58L193.25 246.24L194.33 245.32C194.72 244.99 195.15 244.94 195.63 245.17C196.12 245.39 196.68 245.88 197.32 246.63L195.16 248.47L197.07 250.71C196.58 251.13 196.13 251.32 195.72 251.28C195.32 251.23 194.9 250.95 194.46 250.44L193.82 249.68L190.72 252.32C190.42 252.57 190.26 252.83 190.25 253.09C190.25 253.34 190.4 253.65 190.7 254.01C191.03 254.4 191.47 254.73 192 254.99C192.01 255.19 191.98 255.38 191.9 255.57C191.83 255.76 191.73 255.92 191.59 256.04C191.41 256.19 191.16 256.27 190.86 256.26C190.56 256.25 190.2 256.13 189.81 255.91C189.43 255.69 189.05 255.35 188.66 254.89L188.65 254.87ZM193.62 260.71C193.15 260.16 192.8 259.57 192.56 258.94C192.34 258.31 192.27 257.71 192.36 257.13C192.46 256.54 192.75 256.05 193.23 255.64C193.71 255.23 194.26 255.04 194.87 255.06C195.49 255.07 196.11 255.26 196.73 255.62C197.36 255.99 197.94 256.49 198.46 257.11C198.9 257.63 199.22 258.13 199.43 258.64C199.65 259.15 199.78 259.69 199.83 260.24H199.98C199.95 259.87 199.92 259.58 199.87 259.39L200.05 259.24C200.39 258.95 200.53 258.56 200.47 258.07C200.42 257.59 200.16 257.07 199.68 256.51C199.26 256.02 198.81 255.64 198.34 255.38C197.87 255.12 197.39 254.99 196.91 255C196.74 254.68 196.64 254.37 196.62 254.05C196.62 253.74 196.71 253.51 196.89 253.35C197.17 253.11 197.55 253.05 198.04 253.16C198.53 253.26 199.06 253.52 199.63 253.93C200.21 254.34 200.77 254.86 201.31 255.49C202.35 256.71 202.93 257.85 203.04 258.9C203.15 259.95 202.81 260.8 202.03 261.47L198.72 264.29C198.29 264.65 197.84 264.74 197.35 264.56C196.87 264.39 196.32 263.93 195.69 263.19L196.22 262.74C196.49 262.8 196.72 262.84 196.9 262.85V262.71C196.27 262.6 195.71 262.42 195.2 262.15C194.7 261.88 194.17 261.4 193.59 260.73L193.62 260.71ZM195.5 260.21C195.96 260.75 196.4 261.1 196.82 261.26C197.24 261.42 197.61 261.37 197.91 261.11C198.21 260.85 198.31 260.5 198.22 260.04C198.13 259.59 197.87 259.1 197.42 258.57C197.02 258.1 196.61 257.8 196.2 257.66C195.8 257.54 195.45 257.6 195.15 257.86C194.85 258.12 194.72 258.46 194.79 258.87C194.87 259.29 195.1 259.74 195.51 260.21H195.5ZM201.85 270.37C200.88 269.23 200.26 268.19 200.01 267.27C199.76 266.34 199.9 265.65 200.43 265.2C200.67 265 200.97 264.95 201.34 265.06C201.72 265.18 202.15 265.52 202.63 266.08C202.34 266.48 202.25 266.95 202.35 267.48C202.46 268.01 202.71 268.51 203.13 269C203.61 269.56 204.03 269.95 204.4 270.16C204.78 270.38 205.07 270.4 205.28 270.23C205.46 270.08 205.51 269.82 205.44 269.45C205.37 269.09 205.09 268.47 204.6 267.61C204.03 266.61 203.62 265.79 203.37 265.17C203.14 264.55 203.06 264.02 203.12 263.58C203.18 263.14 203.42 262.74 203.84 262.39C204.43 261.89 205.16 261.79 206.03 262.09C206.92 262.4 207.83 263.1 208.77 264.2C209.71 265.3 210.28 266.28 210.56 267.21C210.83 268.14 210.72 268.81 210.22 269.24C209.97 269.46 209.68 269.5 209.36 269.36C209.05 269.22 208.66 268.87 208.18 268.33C208.4 267.89 208.46 267.45 208.37 267.01C208.29 266.57 208.02 266.08 207.55 265.53C207.22 265.14 206.87 264.84 206.5 264.63C206.13 264.42 205.87 264.38 205.72 264.51C205.55 264.66 205.52 264.9 205.63 265.23C205.75 265.57 206.01 266.08 206.42 266.76C207.29 268.24 207.78 269.42 207.89 270.3C208.01 271.19 207.75 271.9 207.11 272.44C206.72 272.77 206.24 272.92 205.68 272.88C205.11 272.84 204.5 272.61 203.84 272.18C203.19 271.75 202.53 271.14 201.88 270.37H201.85ZM213.44 282.85C212.86 282.92 212.33 282.68 211.86 282.13C211.66 281.89 211.52 281.65 211.45 281.4C211.39 281.14 211.38 280.86 211.43 280.55L212.06 276.44L210.27 276.05L209.28 276.9C208.89 277.23 208.45 277.28 207.95 277.05C207.46 276.81 206.89 276.3 206.24 275.54L214.6 268.43C215.54 267.63 216.67 268 217.99 269.55L212.4 274.31L218.5 275.65C218.65 276.63 218.6 277.22 218.36 277.42C218.21 277.54 218.04 277.61 217.84 277.6C217.65 277.6 217.39 277.57 217.04 277.49L214.23 276.89L213.44 282.85ZM216.48 287.55C215.51 286.41 214.89 285.37 214.64 284.45C214.39 283.52 214.53 282.83 215.06 282.38C215.3 282.18 215.6 282.13 215.97 282.24C216.35 282.36 216.78 282.7 217.26 283.26C216.97 283.66 216.88 284.13 216.98 284.66C217.09 285.19 217.34 285.7 217.76 286.18C218.24 286.74 218.66 287.13 219.03 287.34C219.41 287.56 219.7 287.58 219.91 287.41C220.09 287.26 220.15 287 220.07 286.63C220 286.27 219.72 285.65 219.23 284.79C218.66 283.79 218.25 282.97 218 282.35C217.77 281.73 217.69 281.2 217.75 280.76C217.81 280.32 218.05 279.92 218.47 279.57C219.06 279.07 219.79 278.97 220.66 279.27C221.55 279.58 222.46 280.28 223.4 281.38C224.34 282.48 224.91 283.46 225.19 284.39C225.46 285.32 225.35 285.99 224.85 286.42C224.6 286.64 224.31 286.68 223.99 286.54C223.68 286.4 223.29 286.05 222.81 285.51C223.03 285.07 223.09 284.63 223 284.19C222.92 283.75 222.65 283.26 222.18 282.71C221.85 282.32 221.5 282.02 221.13 281.81C220.76 281.6 220.5 281.56 220.35 281.69C220.18 281.84 220.15 282.08 220.26 282.41C220.38 282.75 220.64 283.26 221.05 283.94C221.92 285.42 222.41 286.6 222.52 287.48C222.64 288.37 222.38 289.08 221.74 289.62C221.35 289.95 220.87 290.1 220.31 290.06C219.74 290.02 219.13 289.79 218.47 289.36C217.82 288.93 217.16 288.32 216.51 287.55H216.48Z" fill="#17D9D9"/>
</svg>
