<svg width="330" height="330" viewBox="0 0 330 330" fill="none" xmlns="http://www.w3.org/2000/svg">
<g clip-path="url(#clip0_222_3)">
<path d="M330.05 48.5778C330.05 33.732 323.382 22.5188 310.047 14.9383C297.672 7.72102 279.609 3.94104 255.859 3.59834C255.397 3.59144 254.938 3.67973 254.51 3.85799C254.082 4.03625 253.692 4.30088 253.365 4.63626C253.038 4.97165 252.779 5.37099 252.605 5.81074C252.43 6.25049 252.343 6.72174 252.348 7.19669V105.833L330.05 203.029V48.5778Z" fill="#E70BBB"/>
<path d="M252.348 105.771V207.841C252.35 208.645 252.618 209.425 253.108 210.051L274.042 236.833C274.35 237.227 274.573 237.684 274.696 238.174C274.818 238.664 274.837 239.175 274.75 239.673C274.664 240.171 274.475 240.644 274.196 241.061C273.916 241.477 273.553 241.827 273.131 242.087L272.991 242.159L324.719 305.202C328.167 300.402 330.035 294.596 330.05 288.629V203.019C312.477 152.714 296.285 130.641 252.348 105.771Z" fill="#E74ABB"/>
<path d="M0 51.7752V128.646L77.6518 225.894V113.019C77.6502 112.215 77.3821 111.435 76.8916 110.809L55.8885 83.8622C55.4568 83.3081 55.1973 82.6333 55.1438 81.9255C55.0903 81.2177 55.2452 80.5098 55.5884 79.8938C45.7469 48.0946 35.4654 36.3228 10.1815 24.5613C3.39385 31.9637 0 41.035 0 51.7752Z" fill="#F6E863"/>
<path d="M1.29967e-05 326.443C-0.00406361 326.916 0.0841786 327.386 0.259534 327.824C0.434889 328.262 0.693805 328.66 1.02101 328.993C1.34821 329.326 1.73707 329.589 2.16465 329.766C2.59222 329.942 3.04985 330.029 3.51054 330.021C27.2675 329.692 45.3135 325.922 57.6487 318.711C70.9841 311.131 77.6518 299.918 77.6518 285.072V225.905C56.3686 171.816 39.466 150.35 1.29967e-05 128.646V326.443Z" fill="#FBBD38"/>
<path d="M72.811 4.84239C72.4827 4.44728 72.0747 4.13041 71.6153 3.91381C71.1559 3.6972 70.656 3.58606 70.1506 3.5881C48.9474 3.80058 32.0348 8.194 19.4129 16.7684C16.0248 18.9589 12.9168 21.5769 10.1615 24.5614C34.6352 40.2708 44.6167 52.8753 55.5684 79.9041C55.8251 79.4288 56.1886 79.0235 56.6285 78.7218L56.8586 78.5573C57.5561 78.0629 58.4069 77.8513 59.2471 77.9633C60.0873 78.0753 60.8575 78.5029 61.4093 79.1638L97.8348 123.208L232.505 197.642L72.811 4.84239Z" fill="#288EEF"/>
<path d="M272.951 242.169C272.259 242.559 271.457 242.69 270.68 242.542C269.904 242.394 269.202 241.976 268.691 241.357L232.505 197.673C215.508 183.036 197.292 169.963 178.067 158.605C152.738 143.665 125.815 131.781 97.8348 123.187L267.781 328.746C268.107 329.145 268.516 329.465 268.978 329.682C269.44 329.899 269.943 330.008 270.451 330C285.853 329.733 299.429 325.644 311.177 317.735C316.42 314.493 321.005 310.241 324.679 305.212C313.047 271.984 302.096 257.817 272.951 242.169Z" fill="#61B1EF"/>
</g>
<defs>
<clipPath id="clip0_222_3">
<rect width="330" height="330" fill="white"/>
</clipPath>
</defs>
</svg>
