<svg width="330" height="330" viewBox="0 0 330 330" fill="none" xmlns="http://www.w3.org/2000/svg">
<g clip-path="url(#clip0_217_184)">
<path d="M330.05 48.5778C330.05 33.732 323.382 22.5188 310.047 14.9383C297.672 7.72102 279.609 3.94104 255.859 3.59834C255.397 3.59144 254.938 3.67973 254.51 3.85799C254.082 4.03625 253.692 4.30088 253.365 4.63626C253.038 4.97165 252.779 5.37099 252.605 5.81074C252.43 6.25049 252.343 6.72174 252.348 7.19669V105.833L330.05 203.029V48.5778Z" fill="#E70BBB"/>
<path d="M252.348 105.771V207.841C252.35 208.645 252.618 209.425 253.108 210.051L274.041 236.833C274.35 237.227 274.573 237.684 274.696 238.174C274.818 238.664 274.837 239.175 274.75 239.673C274.664 240.171 274.475 240.644 274.196 241.061C273.916 241.477 273.553 241.827 273.131 242.087L272.991 242.159L324.719 305.202C328.167 300.402 330.035 294.596 330.05 288.629V203.019C312.477 152.714 296.285 130.641 252.348 105.771Z" fill="#E74ABB"/>
<path d="M0 51.7752V128.646L77.6518 225.894V113.019C77.6502 112.215 77.3821 111.435 76.8916 110.809L55.8885 83.8622C55.4568 83.3081 55.1973 82.6333 55.1438 81.9255C55.0903 81.2177 55.2452 80.5098 55.5884 79.8938C45.7469 48.0946 35.4654 36.3228 10.1815 24.5613C3.39385 31.9637 0 41.035 0 51.7752Z" fill="#F6E863"/>
<path d="M1.29967e-05 326.443C-0.00406361 326.916 0.0841786 327.386 0.259534 327.824C0.434889 328.262 0.693805 328.66 1.02101 328.993C1.34821 329.326 1.73707 329.589 2.16465 329.766C2.59222 329.942 3.04985 330.029 3.51054 330.021C27.2675 329.692 45.3135 325.922 57.6487 318.711C70.9841 311.131 77.6518 299.918 77.6518 285.072V225.905C56.3686 171.816 39.466 150.35 1.29967e-05 128.646V326.443Z" fill="#FBBD38"/>
<path d="M92.7967 23.6463C92.4832 23.2927 92.254 22.8689 92.1273 22.4086C92.0006 21.9482 91.9798 21.4639 92.0666 20.9938C92.348 19.8632 93.0018 18.8677 93.9168 18.1768C94.2282 18.775 94.5967 19.3398 95.017 19.8629C95.34 20.2949 95.7536 20.6463 96.2272 20.891C96.6924 21.0996 97.205 21.1708 97.7074 21.0966C98.5498 21.0062 99.381 20.8271 100.188 20.562L101.508 20.1611L110.109 3.08429C110.428 3.20432 110.718 3.39369 110.959 3.63946C111.274 3.90783 111.565 4.20366 111.83 4.52363C112.309 5.09201 112.651 5.76816 112.83 6.49759C112.928 6.81901 112.963 7.15751 112.932 7.49304C112.901 7.82858 112.805 8.15432 112.65 8.45098L107.649 17.7039L105.859 18.4133L105.989 18.7526L117.74 14.5887C118.356 14.3698 119.031 14.4067 119.621 14.6916C120.302 14.9981 120.904 15.4626 121.381 16.0486C121.633 16.3729 121.86 16.7166 122.061 17.0767C122.264 17.3697 122.407 17.702 122.481 18.0534L101.828 24.9006C100.107 25.5576 98.2697 25.8343 96.4372 25.7128C95.7285 25.6335 95.0421 25.411 94.4173 25.0581C93.7926 24.7053 93.2418 24.229 92.7967 23.6566V23.6463ZM113.92 37.4743C112.911 36.2794 112.161 34.8776 111.72 33.3619C111.308 32.031 111.25 30.6114 111.55 29.2495C111.855 27.9602 112.556 26.8065 113.55 25.9595L117.28 22.7827C118.277 21.8965 119.511 21.341 120.821 21.1892C122.189 21.0303 123.573 21.2615 124.822 21.8574C126.238 22.5249 127.486 23.5167 128.472 24.7567C129.496 25.9627 130.244 27.3889 130.662 28.9308C131.043 30.3051 131.043 31.7613 130.662 33.1357C130.302 34.4367 129.57 35.5969 128.562 36.4667L124.812 39.7361C123.835 40.6002 122.616 41.1223 121.331 41.2269C119.981 41.3016 118.636 41.0109 117.43 40.3838C116.061 39.6898 114.851 38.7051 113.88 37.4948L113.92 37.4743ZM117.28 34.6059C117.861 35.398 118.686 35.9636 119.621 36.2097C120.023 36.2874 120.437 36.2664 120.83 36.1485C121.223 36.0306 121.583 35.8191 121.881 35.5312L125.152 32.673C125.494 32.3925 125.773 32.0381 125.968 31.6349C126.164 31.2317 126.271 30.7895 126.282 30.3393C126.296 29.3459 125.938 28.385 125.282 27.6559C124.691 26.8529 123.826 26.3093 122.861 26.1343C122.429 26.0794 121.991 26.1217 121.576 26.2584C121.162 26.3951 120.781 26.6229 120.461 26.926L117.11 29.8149C116.789 30.0718 116.53 30.403 116.357 30.7818C116.183 31.1605 116.098 31.576 116.11 31.9945C116.201 32.9732 116.614 33.8908 117.28 34.5956V34.6059ZM134.933 56.8026C134.54 57.1903 134.063 57.4772 133.542 57.6397C133.02 57.8023 132.469 57.836 131.933 57.7382C130.683 57.3841 129.588 56.6003 128.832 55.5175L130.492 54.0678C131.015 54.1034 131.54 54.0653 132.053 53.9547V53.6566C130.8 53.8909 129.51 53.7792 128.313 53.3331C127.117 52.8869 126.057 52.1223 125.242 51.1172C124.467 50.2044 123.939 49.0982 123.711 47.9095C123.509 46.7334 123.616 45.523 124.021 44.4037C124.485 43.2013 125.239 42.14 126.212 41.3194L133.323 35.1508C133.646 34.8208 134.054 34.5938 134.5 34.4971C134.945 34.4004 135.408 34.4382 135.833 34.6059C137.018 35.1956 138.047 36.0702 138.834 37.1556L129.752 45.0822C129.44 45.326 129.182 45.6356 128.996 45.9902C128.81 46.3449 128.699 46.7364 128.672 47.1384C128.673 48.0256 129.011 48.8774 129.612 49.5134C129.925 49.9351 130.323 50.2822 130.779 50.5307C131.235 50.7791 131.738 50.9231 132.253 50.9527C133.319 50.9443 134.345 50.5304 135.133 49.7909L141.084 44.599C141.407 44.269 141.815 44.042 142.261 43.9453C142.706 43.8487 143.169 43.8864 143.594 44.0541C144.779 44.6438 145.809 45.5184 146.595 46.6038L134.913 56.7923L134.933 56.8026ZM152.416 60.586C151.625 59.5259 150.489 58.7955 149.215 58.5298C148.672 58.4185 148.111 58.4366 147.575 58.5828C147.039 58.7289 146.543 58.9992 146.125 59.3728L140.174 64.5648C139.842 64.897 139.425 65.1248 138.971 65.2213C138.517 65.3178 138.046 65.2791 137.613 65.1097C136.43 64.5225 135.401 63.6516 134.613 62.5702L146.285 52.4332C146.678 52.0454 147.155 51.7586 147.676 51.596C148.197 51.4334 148.749 51.3997 149.285 51.4976C150.533 51.8389 151.631 52.6078 152.396 53.6772L150.735 55.1268C150.213 55.0913 149.688 55.1293 149.175 55.2399V55.538C152.006 55.1679 154.176 55.8876 155.676 57.7073C156.008 58.0382 156.269 58.4371 156.441 58.8781C156.613 59.3191 156.693 59.7924 156.676 60.2673C156.633 60.6911 156.507 61.1015 156.306 61.4742C156.105 61.8469 155.833 62.1742 155.506 62.4366C155.022 62.8801 154.412 63.1506 153.766 63.2077C153.539 62.2479 153.077 61.3633 152.426 60.6374L152.416 60.586Z" fill="#288EEF"/>
<path d="M121.159 176.13C120.414 175.247 119.828 174.233 119.429 173.138C119.082 172.198 118.952 171.188 119.049 170.187C119.132 169.37 119.51 168.614 120.109 168.069L123.35 165.232C123.965 164.714 124.747 164.453 125.54 164.502C126.517 164.553 127.467 164.846 128.31 165.355C130.304 166.519 131.834 168.368 132.631 170.578C132.987 171.508 133.111 172.516 132.991 173.508C132.932 174.322 132.575 175.083 131.991 175.636L128.751 178.474C128.127 178.996 127.333 179.254 126.53 179.194C125.558 179.142 124.612 178.853 123.77 178.35C122.779 177.774 121.898 177.018 121.169 176.119L121.159 176.13ZM122.9 174.608C123.42 175.297 124.111 175.83 124.9 176.15C125.185 176.28 125.5 176.326 125.809 176.282C126.118 176.239 126.41 176.108 126.65 175.904L129.811 173.138C130.041 172.923 130.211 172.648 130.301 172.342C130.391 172.036 130.398 171.71 130.321 171.401C130.145 170.541 129.748 169.745 129.171 169.098C128.652 168.407 127.961 167.873 127.17 167.555C126.885 167.425 126.57 167.38 126.261 167.423C125.952 167.467 125.661 167.598 125.42 167.802L122.26 170.568C122.029 170.782 121.859 171.057 121.77 171.364C121.68 171.67 121.673 171.995 121.749 172.305C121.925 173.165 122.322 173.961 122.9 174.608ZM136.092 182.833C135.63 182.22 134.999 181.764 134.281 181.527C134.015 181.429 133.728 181.404 133.449 181.455C133.17 181.505 132.909 181.629 132.691 181.815L129.821 184.313C129.642 184.477 129.418 184.58 129.179 184.608C128.941 184.635 128.701 184.586 128.491 184.468C127.823 184.064 127.238 183.529 126.77 182.895L132.401 177.96C132.602 177.769 132.848 177.636 133.115 177.574C133.382 177.513 133.66 177.525 133.921 177.61C134.628 177.886 135.242 178.364 135.692 178.988L134.891 179.687C134.619 179.657 134.344 179.657 134.071 179.687V179.852C134.744 179.804 135.418 179.921 136.039 180.193C136.659 180.465 137.209 180.883 137.642 181.414C138.02 181.806 138.251 182.324 138.292 182.874C138.298 183.088 138.256 183.3 138.17 183.495C138.083 183.689 137.954 183.86 137.792 183.995C137.549 184.214 137.235 184.331 136.912 184.324C136.731 183.77 136.438 183.261 136.052 182.833H136.092ZM132.721 195.767C132.193 195.146 131.749 194.454 131.401 193.71C131.128 193.154 130.975 192.544 130.951 191.921C130.945 191.701 130.986 191.482 131.071 191.28C131.155 191.078 131.282 190.897 131.441 190.749C131.574 190.625 131.739 190.542 131.916 190.511C132.093 190.48 132.276 190.502 132.441 190.575C132.924 190.845 133.349 191.212 133.691 191.654C133.025 192.415 133.175 193.361 134.141 194.492C134.313 194.756 134.534 194.984 134.791 195.16C135.049 195.337 135.338 195.459 135.642 195.52C135.89 195.54 136.14 195.505 136.374 195.418C136.609 195.331 136.823 195.194 137.002 195.016L137.352 194.708C137.54 194.788 137.739 194.837 137.942 194.851V194.718C137.391 194.576 136.874 194.321 136.422 193.967C135.938 193.632 135.498 193.234 135.112 192.785C134.606 192.185 134.225 191.485 133.991 190.729C133.781 190.094 133.736 189.413 133.861 188.755C133.995 188.148 134.318 187.603 134.781 187.202L136.782 185.475C137.231 185.078 137.8 184.853 138.392 184.838C139.058 184.821 139.717 184.973 140.312 185.28C140.952 185.581 141.518 186.023 141.973 186.575C142.43 187.087 142.772 187.696 142.976 188.358C143.18 189.021 143.24 189.721 143.153 190.41H143.283C143.325 190.2 143.352 189.987 143.363 189.773C143.863 189.341 144.713 189.845 145.913 191.294L139.312 197.072C138.732 197.595 138.001 197.909 137.232 197.967C136.414 198.034 135.595 197.859 134.871 197.463C134.049 197.05 133.318 196.469 132.721 195.756V195.767ZM137.292 192.014C137.62 192.444 138.056 192.774 138.552 192.97C138.726 193.047 138.915 193.075 139.103 193.054C139.291 193.032 139.469 192.961 139.622 192.847L141.442 191.253C141.578 191.126 141.677 190.962 141.728 190.781C141.779 190.6 141.781 190.407 141.733 190.225C141.62 189.692 141.371 189.198 141.012 188.796C140.691 188.33 140.242 187.972 139.722 187.768C139.536 187.705 139.338 187.694 139.146 187.735C138.955 187.777 138.777 187.87 138.632 188.004L136.932 189.495C136.786 189.617 136.672 189.776 136.602 189.956C136.532 190.136 136.508 190.331 136.532 190.523C136.651 191.072 136.914 191.577 137.292 191.983V192.014ZM142.763 202.223C142.31 201.684 141.951 201.068 141.703 200.403C141.486 199.81 141.418 199.17 141.502 198.542C141.602 197.94 141.911 197.396 142.373 197.011C142.824 196.602 143.412 196.388 144.013 196.414C144.671 196.438 145.312 196.636 145.873 196.99C146.531 197.395 147.116 197.913 147.603 198.522C148.015 198.989 148.353 199.52 148.604 200.095C148.821 200.618 148.956 201.173 149.004 201.74H149.154C149.139 201.446 149.102 201.154 149.044 200.866L149.224 200.712C149.39 200.567 149.517 200.379 149.591 200.168C149.665 199.957 149.683 199.73 149.644 199.509C149.541 198.905 149.266 198.347 148.854 197.905C148.477 197.44 148.023 197.046 147.513 196.743C147.079 196.484 146.585 196.35 146.083 196.353C145.919 196.052 145.82 195.719 145.793 195.376C145.784 195.243 145.803 195.109 145.85 194.985C145.896 194.861 145.969 194.748 146.063 194.656C146.225 194.53 146.414 194.446 146.615 194.412C146.815 194.378 147.021 194.395 147.213 194.461C147.791 194.608 148.333 194.878 148.804 195.252C149.43 195.709 149.995 196.248 150.484 196.856C151.387 197.822 151.99 199.042 152.214 200.362C152.282 200.854 152.226 201.355 152.051 201.818C151.876 202.281 151.588 202.689 151.214 203.004L147.823 205.893C147.644 206.069 147.42 206.188 147.178 206.237C146.935 206.286 146.684 206.263 146.453 206.171C145.812 205.859 145.253 205.394 144.823 204.814L145.353 204.351C145.577 204.407 145.804 204.445 146.033 204.464V204.32C145.44 204.222 144.866 204.028 144.333 203.745C143.718 203.358 143.173 202.864 142.723 202.285L142.763 202.223ZM144.643 201.709C144.99 202.175 145.444 202.545 145.963 202.788C146.14 202.875 146.337 202.907 146.531 202.879C146.724 202.852 146.906 202.767 147.053 202.634C147.205 202.503 147.316 202.329 147.371 202.133C147.426 201.937 147.424 201.728 147.363 201.534C147.225 200.969 146.949 200.449 146.563 200.023C146.245 199.604 145.824 199.281 145.343 199.087C145.165 199.025 144.975 199.012 144.791 199.049C144.607 199.086 144.436 199.171 144.293 199.296C144.151 199.422 144.043 199.583 143.98 199.765C143.917 199.946 143.9 200.141 143.933 200.331C144.05 200.848 144.298 201.323 144.653 201.709H144.643ZM153.824 203.786C154.025 203.595 154.272 203.462 154.539 203.4C154.806 203.339 155.084 203.351 155.345 203.436C156.051 203.711 156.665 204.19 157.115 204.814L156.315 205.513C156.042 205.483 155.767 205.483 155.495 205.513L155.545 205.677C156.259 205.658 156.967 205.82 157.605 206.15C158.314 206.508 158.941 207.016 159.445 207.641C159.892 208.158 160.217 208.774 160.395 209.44C160.556 210.036 160.556 210.665 160.395 211.26C160.246 211.829 159.928 212.336 159.485 212.71L155.935 215.794C155.756 215.958 155.532 216.061 155.293 216.088C155.055 216.116 154.815 216.067 154.604 215.948C153.938 215.543 153.353 215.009 152.884 214.375L157.245 210.561C157.391 210.435 157.508 210.278 157.588 210.1C157.667 209.922 157.707 209.729 157.705 209.533C157.681 209.041 157.486 208.574 157.155 208.217C156.783 207.689 156.234 207.323 155.615 207.189C155.352 207.134 155.081 207.143 154.822 207.214C154.564 207.285 154.325 207.418 154.124 207.6L151.254 210.109C151.075 210.272 150.851 210.375 150.613 210.403C150.374 210.43 150.134 210.381 149.924 210.263C149.256 209.859 148.671 209.325 148.203 208.69L153.824 203.786ZM165.196 213.491C164.86 213.11 164.644 212.633 164.576 212.124C164.554 211.912 164.582 211.699 164.659 211.502C164.735 211.304 164.858 211.13 165.016 210.993C165.172 210.855 165.359 210.76 165.56 210.715C165.76 210.67 165.969 210.677 166.166 210.736C166.643 210.885 167.068 211.171 167.39 211.561C167.713 211.951 167.92 212.428 167.987 212.936C168.019 213.147 167.997 213.363 167.923 213.564C167.85 213.764 167.727 213.941 167.566 214.077C167.406 214.218 167.214 214.315 167.008 214.36C166.802 214.405 166.588 214.396 166.386 214.334C165.909 214.196 165.488 213.904 165.186 213.501L165.196 213.491ZM162.606 213.707C162.782 213.541 163.006 213.439 163.244 213.415C163.482 213.391 163.721 213.446 163.926 213.573C164.6 213.963 165.189 214.491 165.656 215.126L159.655 220.338C159.476 220.502 159.252 220.605 159.014 220.632C158.776 220.66 158.535 220.611 158.325 220.492C157.658 220.087 157.074 219.553 156.605 218.919L162.606 213.707ZM161.035 223.988C160.832 223.761 160.721 223.463 160.725 223.155C160.747 222.889 160.869 222.642 161.065 222.466C161.144 222.395 161.236 222.343 161.336 222.312C161.437 222.282 161.542 222.275 161.646 222.292L170.557 223.392V223.227L169.667 223.083L167.116 219.999C166.954 219.825 166.831 219.618 166.755 219.391C166.679 219.163 166.652 218.922 166.676 218.683C166.771 218.207 167.026 217.781 167.396 217.48L172.997 224.245C173.201 224.471 173.312 224.77 173.307 225.078C173.314 225.202 173.293 225.327 173.244 225.441C173.195 225.556 173.121 225.656 173.027 225.736C172.937 225.815 172.832 225.873 172.718 225.907C172.604 225.941 172.484 225.949 172.367 225.931L163.456 224.831V225.026L164.366 225.16L167.206 228.584C167.367 228.755 167.488 228.961 167.56 229.187C167.633 229.413 167.656 229.653 167.626 229.889C167.532 230.365 167.277 230.791 166.906 231.092L161.035 223.998V223.988ZM170.787 236.017C170.219 235.34 169.775 234.563 169.477 233.724C169.215 233.01 169.126 232.24 169.217 231.483C169.284 230.832 169.592 230.232 170.077 229.807L171.817 228.285C172.329 227.842 172.978 227.602 173.647 227.607C174.421 227.616 175.18 227.821 175.858 228.203C176.622 228.621 177.301 229.187 177.858 229.869C178.404 230.514 178.825 231.261 179.098 232.069C179.362 232.772 179.434 233.536 179.308 234.279C179.185 234.95 178.83 235.553 178.308 235.976L177.578 236.623C177.466 236.719 177.332 236.786 177.189 236.816C177.046 236.846 176.898 236.84 176.758 236.798C176.41 236.695 176.103 236.483 175.878 236.191L172.267 231.832L172.077 231.997C171.903 232.142 171.764 232.325 171.669 232.534C171.573 232.742 171.525 232.97 171.527 233.2C171.583 233.789 171.834 234.34 172.237 234.762C172.549 235.209 172.99 235.544 173.497 235.719C173.671 235.76 173.851 235.76 174.024 235.719C174.197 235.678 174.359 235.597 174.497 235.482L174.958 235.976C175.294 236.335 175.526 236.783 175.628 237.271C175.657 237.453 175.638 237.64 175.573 237.811C175.508 237.983 175.399 238.134 175.258 238.248C175.096 238.363 174.912 238.439 174.717 238.469C174.523 238.5 174.325 238.484 174.137 238.422C173.538 238.276 172.972 238.014 172.467 237.651C171.818 237.197 171.233 236.654 170.727 236.037L170.787 236.017ZM176.378 233.96L176.568 233.796C176.741 233.653 176.876 233.466 176.958 233.253C177.041 233.04 177.068 232.81 177.038 232.583C176.982 232.028 176.75 231.508 176.378 231.102C176.04 230.657 175.575 230.333 175.048 230.177C174.833 230.123 174.608 230.126 174.395 230.185C174.182 230.245 173.986 230.359 173.827 230.516L173.637 230.681L176.378 233.96ZM177.488 249.762C177.305 249.562 177.163 249.326 177.07 249.068C176.977 248.81 176.936 248.536 176.948 248.261C176.98 247.975 177.071 247.699 177.214 247.451C177.357 247.203 177.549 246.989 177.778 246.822C177.975 247.184 178.203 247.528 178.458 247.85C178.652 248.099 178.89 248.308 179.158 248.467C179.403 248.606 179.679 248.673 179.958 248.662C180.392 248.664 180.825 248.616 181.249 248.518L181.929 248.374L185.549 239.481C185.725 239.573 185.887 239.691 186.029 239.831C186.21 239.998 186.38 240.177 186.539 240.366C186.823 240.699 187.041 241.087 187.179 241.507C187.306 241.837 187.306 242.205 187.179 242.535L185.029 247.336L184.119 247.624L184.209 247.819L190.21 246.205C190.551 246.128 190.909 246.187 191.21 246.37C191.594 246.585 191.933 246.875 192.21 247.223C192.33 247.374 192.47 247.569 192.63 247.809C192.754 247.98 192.848 248.171 192.91 248.374L182.339 250.976C181.42 251.237 180.457 251.286 179.518 251.119C178.709 250.922 177.987 250.452 177.468 249.783L177.488 249.762ZM189.49 258.573C188.898 257.873 188.427 257.073 188.1 256.209C187.816 255.493 187.706 254.716 187.779 253.947C187.852 253.287 188.167 252.68 188.66 252.25L190.47 250.667C190.971 250.234 191.605 249.997 192.26 249.999C193.026 249.994 193.779 250.2 194.441 250.595C195.242 251.058 195.953 251.668 196.541 252.394C197.146 253.104 197.618 253.923 197.931 254.81C198.201 255.548 198.277 256.346 198.151 257.124C198.051 257.789 197.721 258.395 197.221 258.83L195.411 260.414C194.923 260.844 194.292 261.065 193.65 261.03C192.899 260.983 192.171 260.746 191.53 260.342C190.752 259.871 190.058 259.266 189.48 258.553L189.49 258.573ZM191.1 257.165C191.437 257.632 191.899 257.989 192.43 258.193C192.627 258.262 192.837 258.276 193.041 258.235C193.245 258.193 193.434 258.097 193.59 257.956L195.171 256.579C195.341 256.433 195.474 256.245 195.556 256.034C195.638 255.822 195.667 255.592 195.641 255.366C195.571 254.79 195.322 254.252 194.931 253.834C194.592 253.35 194.112 252.989 193.56 252.806C193.347 252.748 193.124 252.746 192.909 252.798C192.695 252.85 192.496 252.955 192.33 253.104L190.75 254.481C190.589 254.617 190.465 254.794 190.392 254.994C190.318 255.195 190.297 255.411 190.33 255.623C190.44 256.19 190.704 256.713 191.09 257.134L191.1 257.165ZM201.712 270.376C201.511 270.567 201.264 270.7 200.997 270.761C200.73 270.823 200.452 270.81 200.191 270.725C199.485 270.45 198.871 269.972 198.421 269.348L199.221 268.649C199.494 268.679 199.769 268.679 200.041 268.649L199.991 268.484C199.272 268.509 198.557 268.36 197.904 268.05C197.251 267.739 196.678 267.275 196.231 266.695C195.769 266.162 195.427 265.53 195.231 264.845C195.071 264.218 195.071 263.559 195.231 262.932C195.405 262.324 195.754 261.783 196.231 261.38L199.661 258.378C199.834 258.214 200.053 258.111 200.287 258.083C200.521 258.055 200.757 258.104 200.961 258.224C201.641 258.623 202.236 259.158 202.712 259.797L198.331 263.631C198.181 263.753 198.061 263.91 197.981 264.089C197.901 264.267 197.863 264.463 197.871 264.66C197.93 265.171 198.152 265.648 198.501 266.017C198.862 266.51 199.391 266.844 199.981 266.952C200.243 266.985 200.509 266.96 200.761 266.878C201.013 266.797 201.245 266.661 201.442 266.479L204.312 263.971C204.485 263.807 204.704 263.703 204.938 263.676C205.171 263.648 205.408 263.697 205.612 263.817C206.292 264.216 206.887 264.751 207.362 265.39L201.732 270.324L201.712 270.376ZM211.213 273.46C210.752 272.847 210.121 272.392 209.403 272.154C209.136 272.056 208.849 272.031 208.571 272.082C208.292 272.132 208.03 272.257 207.813 272.442L204.942 274.951C204.763 275.115 204.539 275.217 204.301 275.245C204.063 275.273 203.822 275.224 203.612 275.105C202.944 274.701 202.36 274.167 201.892 273.532L207.522 268.597C207.723 268.406 207.97 268.273 208.237 268.212C208.504 268.151 208.782 268.163 209.043 268.248C209.749 268.523 210.364 269.001 210.813 269.625L210.013 270.324C209.74 270.294 209.465 270.294 209.193 270.324V270.489C209.877 270.43 210.565 270.541 211.199 270.813C211.832 271.085 212.393 271.51 212.833 272.052C213.212 272.443 213.442 272.961 213.483 273.512C213.49 273.725 213.448 273.938 213.361 274.132C213.274 274.326 213.145 274.498 212.983 274.632C212.74 274.851 212.426 274.969 212.103 274.961C211.923 274.407 211.63 273.899 211.243 273.47L211.213 273.46ZM215.504 289.982C215.149 289.623 214.868 289.196 214.675 288.725C214.483 288.254 214.384 287.748 214.384 287.237C214.416 286.81 214.533 286.396 214.73 286.019C214.926 285.642 215.196 285.311 215.524 285.047L218.694 282.271L217.174 280.441C217.524 280.085 217.992 279.879 218.484 279.865C218.69 279.877 218.891 279.933 219.073 280.031C219.256 280.128 219.417 280.264 219.544 280.431L220.104 281.109L221.185 280.163C221.357 279.999 221.577 279.896 221.81 279.868C222.044 279.841 222.28 279.89 222.485 280.009C223.143 280.383 223.719 280.895 224.175 281.51L222.015 283.402L223.925 285.705C223.75 285.891 223.54 286.039 223.308 286.139C223.076 286.24 222.827 286.292 222.575 286.291C222.067 286.17 221.619 285.863 221.315 285.427L220.674 284.646L217.574 287.36C217.446 287.451 217.338 287.568 217.257 287.705C217.176 287.841 217.124 287.993 217.104 288.152C217.148 288.51 217.306 288.842 217.554 289.098C217.914 289.529 218.356 289.879 218.854 290.126C218.866 290.33 218.832 290.534 218.754 290.722C218.693 290.908 218.586 291.074 218.444 291.205C218.236 291.371 217.976 291.452 217.714 291.431C217.341 291.397 216.982 291.274 216.664 291.072C216.227 290.798 215.838 290.45 215.514 290.043L215.504 289.982ZM220.504 295.986C220.051 295.447 219.693 294.831 219.444 294.166C219.228 293.573 219.16 292.933 219.244 292.305C219.344 291.703 219.653 291.159 220.114 290.773C220.566 290.364 221.154 290.151 221.755 290.177C222.413 290.201 223.054 290.399 223.615 290.753C224.273 291.158 224.858 291.676 225.345 292.285C225.757 292.751 226.095 293.282 226.345 293.858C226.563 294.381 226.698 294.936 226.745 295.503H226.835C226.821 295.209 226.784 294.917 226.725 294.629L226.905 294.475C227.072 294.33 227.199 294.142 227.273 293.931C227.346 293.72 227.365 293.492 227.325 293.272C227.223 292.668 226.948 292.11 226.535 291.668C226.159 291.202 225.705 290.809 225.195 290.506C224.761 290.247 224.267 290.112 223.765 290.115C223.601 289.815 223.502 289.482 223.475 289.139C223.466 289.006 223.485 288.872 223.532 288.748C223.578 288.623 223.651 288.511 223.745 288.419C223.907 288.293 224.096 288.209 224.297 288.175C224.497 288.141 224.702 288.158 224.895 288.224C225.473 288.371 226.015 288.64 226.485 289.015C227.108 289.477 227.672 290.016 228.166 290.619C229.053 291.601 229.634 292.832 229.836 294.156C229.904 294.647 229.848 295.149 229.673 295.612C229.498 296.075 229.209 296.483 228.836 296.798L225.525 299.697C225.346 299.873 225.122 299.992 224.879 300.041C224.637 300.09 224.385 300.067 224.155 299.975C223.497 299.653 222.927 299.169 222.495 298.566L223.025 298.104C223.248 298.159 223.476 298.197 223.705 298.217V298.073C223.112 297.975 222.538 297.78 222.005 297.497C221.389 297.111 220.844 296.617 220.394 296.037L220.504 295.986ZM222.385 295.472C222.732 295.937 223.185 296.308 223.705 296.551C223.881 296.638 224.079 296.67 224.273 296.642C224.466 296.615 224.648 296.53 224.795 296.397C224.947 296.266 225.058 296.091 225.113 295.896C225.168 295.7 225.165 295.491 225.105 295.297C224.966 294.732 224.691 294.212 224.305 293.786C223.987 293.367 223.566 293.044 223.085 292.85C222.907 292.788 222.717 292.775 222.533 292.812C222.349 292.848 222.177 292.934 222.035 293.059C221.893 293.185 221.785 293.346 221.722 293.528C221.658 293.709 221.642 293.904 221.675 294.094C221.792 294.611 222.04 295.086 222.395 295.472H222.385ZM228.736 305.917C227.908 305.002 227.281 303.915 226.895 302.73C226.749 302.373 226.71 301.979 226.785 301.599C226.86 301.22 227.045 300.872 227.315 300.602C227.442 300.498 227.592 300.43 227.752 300.405C227.912 300.379 228.075 300.398 228.226 300.458C228.736 300.679 229.181 301.033 229.516 301.486C229.373 301.692 229.274 301.927 229.226 302.175C229.177 302.423 229.181 302.679 229.236 302.926C229.36 303.507 229.629 304.045 230.016 304.488C230.373 304.954 230.802 305.357 231.286 305.681C231.666 305.907 231.956 305.928 232.166 305.753C232.261 305.647 232.327 305.516 232.355 305.375C232.383 305.233 232.373 305.087 232.326 304.951C232.131 304.284 231.849 303.647 231.486 303.059C231.024 302.251 230.613 301.413 230.256 300.551C230.045 300.035 229.959 299.474 230.006 298.916C230.085 298.428 230.343 297.991 230.726 297.692C231.028 297.438 231.392 297.274 231.779 297.22C232.165 297.165 232.559 297.222 232.916 297.384C233.998 297.849 234.943 298.597 235.657 299.553C236.455 300.443 237.064 301.493 237.447 302.638C237.597 302.976 237.644 303.353 237.584 303.719C237.523 304.086 237.357 304.425 237.107 304.694C236.994 304.804 236.85 304.874 236.696 304.897C236.542 304.919 236.385 304.891 236.247 304.817C235.795 304.553 235.395 304.204 235.067 303.789C235.279 303.372 235.346 302.893 235.257 302.432C235.116 301.861 234.833 301.336 234.437 300.91C234.142 300.541 233.787 300.228 233.386 299.985C233.013 299.773 232.753 299.732 232.606 299.862C232.46 299.992 232.43 300.239 232.516 300.602C232.732 301.15 232.997 301.677 233.306 302.175C234.016 303.282 234.515 304.517 234.777 305.814C234.851 306.219 234.818 306.637 234.68 307.025C234.543 307.412 234.307 307.754 233.996 308.015C233.8 308.185 233.572 308.312 233.326 308.39C233.08 308.468 232.822 308.494 232.566 308.467C231.903 308.392 231.27 308.144 230.726 307.747C229.977 307.228 229.303 306.601 228.726 305.886L228.736 305.917ZM240.327 318.748C240.024 318.776 239.719 318.722 239.442 318.592C239.165 318.462 238.926 318.261 238.747 318.008C238.561 317.79 238.421 317.534 238.337 317.257C238.282 316.969 238.282 316.672 238.337 316.383L238.967 312.158L237.177 311.757L236.177 312.631C235.998 312.795 235.774 312.897 235.536 312.925C235.297 312.953 235.057 312.904 234.847 312.785C234.185 312.385 233.605 311.858 233.136 311.233L241.498 303.923C242.438 303.1 243.568 303.484 244.888 305.074L239.297 309.968L245.398 311.346C245.548 312.374 245.498 312.96 245.258 313.165C245.114 313.293 244.928 313.359 244.738 313.35C244.468 313.343 244.2 313.305 243.938 313.237L241.128 312.621L240.327 318.748ZM243.328 323.58C242.501 322.665 241.873 321.578 241.488 320.393C241.341 320.036 241.302 319.642 241.377 319.262C241.452 318.882 241.637 318.535 241.908 318.265C242.034 318.161 242.184 318.093 242.344 318.067C242.504 318.042 242.667 318.061 242.818 318.121C243.328 318.342 243.773 318.696 244.108 319.149C243.965 319.355 243.866 319.59 243.818 319.838C243.77 320.086 243.773 320.342 243.828 320.588C243.951 321.17 244.22 321.709 244.608 322.151C244.965 322.617 245.394 323.02 245.878 323.344C246.258 323.57 246.548 323.59 246.758 323.416C246.856 323.311 246.922 323.18 246.951 323.038C246.979 322.896 246.968 322.749 246.918 322.614C246.724 321.947 246.441 321.31 246.078 320.722C245.617 319.914 245.206 319.076 244.848 318.213C244.637 317.697 244.551 317.136 244.598 316.579C244.677 316.091 244.935 315.653 245.318 315.355C245.62 315.101 245.984 314.937 246.371 314.883C246.758 314.828 247.151 314.885 247.509 315.047C248.59 315.512 249.535 316.26 250.249 317.216C251.047 318.106 251.656 319.156 252.039 320.3C252.189 320.639 252.236 321.016 252.176 321.382C252.115 321.749 251.949 322.088 251.699 322.357C251.586 322.466 251.442 322.537 251.288 322.559C251.134 322.581 250.977 322.554 250.839 322.48C250.387 322.215 249.987 321.867 249.659 321.452C249.871 321.035 249.938 320.556 249.849 320.095C249.708 319.523 249.425 318.999 249.029 318.573C248.735 318.204 248.379 317.89 247.979 317.648C247.605 317.435 247.345 317.394 247.198 317.525C247.052 317.655 247.022 317.902 247.108 318.265C247.324 318.813 247.589 319.339 247.899 319.838C248.608 320.944 249.107 322.179 249.369 323.477C249.443 323.882 249.41 324.3 249.273 324.687C249.135 325.075 248.899 325.417 248.589 325.677C248.392 325.847 248.164 325.975 247.918 326.053C247.673 326.13 247.414 326.157 247.158 326.13C246.496 326.055 245.862 325.807 245.318 325.41C244.569 324.891 243.895 324.264 243.318 323.549L243.328 323.58Z" fill="#61B1EF"/>
<path d="M72.811 4.84239C72.4828 4.44728 72.0747 4.13041 71.6153 3.91381C71.1559 3.6972 70.6561 3.58606 70.1506 3.5881C48.9474 3.80058 32.0348 8.194 19.4129 16.7684C16.0248 18.9589 12.9168 21.5769 10.1615 24.5614C34.6352 40.2708 44.6168 52.8753 55.5684 79.9041C55.8252 79.4288 56.1886 79.0235 56.6286 78.7218L56.8586 78.5573C57.5561 78.0629 58.4069 77.8513 59.2471 77.9633C60.0874 78.0753 60.8575 78.5029 61.4093 79.1638L97.8348 123.208L232.505 197.642L72.811 4.84239Z" fill="#288EEF"/>
<path d="M272.951 242.169C272.259 242.559 271.457 242.69 270.68 242.542C269.904 242.394 269.202 241.976 268.691 241.357L232.505 197.673C215.508 183.036 197.291 169.963 178.067 158.605C152.738 143.665 125.815 131.781 97.8348 123.187L267.781 328.746C268.107 329.145 268.516 329.465 268.978 329.682C269.44 329.899 269.943 330.008 270.451 330C285.853 329.733 299.429 325.644 311.177 317.735C316.42 314.493 321.005 310.241 324.679 305.212C313.047 271.984 302.096 257.817 272.951 242.169Z" fill="#61B1EF"/>
</g>
<defs>
<clipPath id="clip0_217_184">
<rect width="330" height="330" fill="white"/>
</clipPath>
</defs>
</svg>
