<svg width="100" height="100" viewBox="0 0 100 100" fill="none" xmlns="http://www.w3.org/2000/svg">
<g clip-path="url(#clip0_222_12)">
<path d="M100.015 14.7205C100.015 10.2218 97.9947 6.82387 93.9537 4.52674C90.2036 2.33968 84.73 1.19423 77.533 1.09038C77.393 1.08829 77.254 1.11505 77.1242 1.16907C76.9944 1.22309 76.8765 1.30328 76.7773 1.40491C76.6782 1.50654 76.5998 1.62755 76.5469 1.76081C76.494 1.89407 76.4676 2.03687 76.4692 2.1808V32.0705L100.015 61.5241V14.7205Z" fill="#E70BBB"/>
<path d="M76.4691 32.0518V62.9821C76.4696 63.2258 76.5508 63.4621 76.6995 63.6519L83.0428 71.7677C83.1364 71.887 83.204 72.0256 83.2411 72.174C83.2781 72.3225 83.2838 72.4774 83.2576 72.6283C83.2315 72.7791 83.1742 72.9225 83.0895 73.0487C83.0049 73.1749 82.8949 73.2809 82.767 73.3597L82.7246 73.3815L98.3997 92.4855C99.4445 91.0309 100.01 89.2715 100.015 87.4634V61.5209C94.6901 46.277 89.7833 39.5881 76.4691 32.0518Z" fill="#E74ABB"/>
<path d="M0 15.6894V38.9837L23.5308 68.4528V34.2482C23.5304 34.0045 23.4491 33.7683 23.3005 33.5784L16.9359 25.4128C16.8051 25.2449 16.7264 25.0404 16.7102 24.8259C16.694 24.6114 16.741 24.3969 16.845 24.2102C13.8627 14.5741 10.7471 11.0069 3.08532 7.44281C1.02844 9.68594 0 12.4348 0 15.6894Z" fill="#F6E863"/>
<path d="M-8.11409e-05 98.9221C-0.00131648 99.0656 0.0254236 99.2079 0.0785615 99.3407C0.131699 99.4734 0.210159 99.5938 0.309311 99.6949C0.408463 99.7959 0.526299 99.8755 0.655868 99.929C0.785437 99.9825 0.924113 100.009 1.06372 100.006C8.26279 99.9066 13.7313 98.7642 17.4692 96.5793C21.5102 94.2821 23.5308 90.8842 23.5308 86.3855V68.456C17.0813 52.0656 11.9593 45.5605 -8.11409e-05 38.9838V98.9221Z" fill="#FBBD38"/>
<path d="M22.0639 1.46737C21.9644 1.34765 21.8408 1.25163 21.7016 1.18599C21.5624 1.12035 21.4109 1.08667 21.2577 1.08729C14.8325 1.15167 9.7075 2.48301 5.88268 5.08131C4.85597 5.74511 3.91416 6.53845 3.07922 7.44282C10.4955 12.2032 13.5202 16.0228 16.8389 24.2133C16.9167 24.0693 17.0268 23.9465 17.1601 23.8551L17.2299 23.8052C17.4412 23.6554 17.699 23.5913 17.9536 23.6252C18.2083 23.6592 18.4416 23.7887 18.6088 23.989L29.6469 37.3356L70.4561 59.8916L22.0639 1.46737Z" fill="#288EEF"/>
<path d="M82.7126 73.3846C82.5027 73.5025 82.2596 73.5425 82.0244 73.4976C81.7892 73.4528 81.5763 73.3259 81.4215 73.1385L70.4562 59.9009C65.3054 55.4655 59.7854 51.504 53.9597 48.0622C46.2842 43.5349 38.126 39.9335 29.647 37.3294L81.1457 99.6199C81.2447 99.741 81.3686 99.838 81.5086 99.9037C81.6486 99.9695 81.801 100.002 81.9549 100C86.6223 99.919 90.736 98.6801 94.2962 96.2832C95.8849 95.3009 97.2742 94.0125 98.3877 92.4886C94.8629 82.4194 91.5442 78.1263 82.7126 73.3846Z" fill="#61B1EF"/>
</g>
<defs>
<clipPath id="clip0_222_12">
<rect width="100" height="100" fill="white"/>
</clipPath>
</defs>
</svg>
