<svg width="153" height="132" viewBox="0 0 153 132" fill="none" xmlns="http://www.w3.org/2000/svg">
<path d="M153 18.1234C153 12.143 149.926 7.62458 143.783 4.57225C138.097 1.66073 129.784 0.14078 118.839 0.00410809C117.949 -0.00417503 117.221 0.633625 117.221 1.43295V41.1671L153 80.3421V18.1234Z" fill="#E70BBB"/>
<path d="M117.221 41.163V82.2804C117.221 82.6034 117.346 82.9182 117.572 83.1708L127.198 93.9596C127.802 94.6346 127.604 95.6286 126.779 96.0759C126.76 96.0883 126.737 96.0925 126.714 96.1049L150.548 121.501C152.175 119.447 153 117.223 153 114.825V80.338L117.221 41.163Z" fill="#E74ABB"/>
<path d="M0.950012 19.4114V50.3779L36.7286 89.5529V44.0827C36.7286 43.7597 36.6042 43.4449 36.3784 43.1923L26.6918 32.3372C26.2679 31.8651 26.2448 31.2314 26.5536 30.7386L5.63202 8.44873C2.51682 11.4307 0.950012 15.0835 0.950012 19.4114Z" fill="#F6E863"/>
<path d="M0.950012 130.057C0.950012 130.857 1.67812 131.499 2.56752 131.486C13.5122 131.354 21.8255 129.83 27.5121 126.918C33.6549 123.866 36.7286 119.351 36.7286 113.367V89.5571L0.950012 50.3779V130.057Z" fill="#FBBD38"/>
<path d="M124.751 95.7818L34.4982 0.50527C34.1941 0.182229 33.7425 0 33.2724 0C23.5029 0.0869727 15.7103 1.85542 9.89467 5.30948C8.2403 6.2579 6.82556 7.30571 5.63202 8.44878L26.5536 30.7428C26.6688 30.5606 26.8301 30.3908 27.0421 30.2665L27.148 30.2003C27.8162 29.7902 28.7195 29.9021 29.2448 30.457L124.332 130.985C124.636 131.308 125.088 131.499 125.562 131.49C132.659 131.383 138.917 129.734 144.327 126.549C147.041 125.001 149.111 123.319 150.548 121.505L126.714 96.109C126.055 96.4279 125.235 96.2995 124.751 95.7818Z" fill="#61B1EF"/>
</svg>
